<svg xmlns="http://www.w3.org/2000/svg" width="21" height="18" viewBox="0 0 21 18"><path fill="#bdcbc3" d="M10.72 12.67c-.25 0-.45.2-.45.45v.5c0 .25.2.45.45.45s.45-.2.45-.45v-.5c0-.25-.2-.45-.45-.45zm8.75-6.84L16.5 4.18V.45c0-.25-.2-.45-.45-.45h-2.27c-.25 0-.45.2-.45.45v1.97L10.18.65a.45.45 0 0 0-.43 0L.46 5.83a.9.9 0 0 0-.46.79v1.55a.9.9 0 0 0 1.32.79l.8-.44v8.57H.48c-.25 0-.45.2-.45.46 0 .25.2.45.45.45H18.6a.45.45 0 1 0 0-.9h-.8V8.51l.8.44a.88.88 0 0 0 .89-.01.9.9 0 0 0 .44-.78V6.62a.9.9 0 0 0-.46-.79zM14.24.91h1.37v2.77l-1.37-.76zM3.02 17.09v-1.87h4.25v1.87zm0-2.78v-1.88h4.25v1.88zm0-2.79V9.65h4.25v1.87zm8.73 5.57H8.17V9.65h3.58zm.9 0v-1.87h4.26v1.87zm0-2.78v-1.88h4.26v1.88zm0-2.79V9.65h4.26v1.87zM3.02 8.74V8L5.1 6.86h9.75l2.07 1.15v.73zm3.7-2.79l3.24-1.8 3.25 1.8zm3.46-2.72a.45.45 0 0 0-.43 0L.9 8.16V6.62l9.06-5.05 3.62 2.02 2.26 1.26 3.19 1.77v1.54zm10.37 13.86h-.5c-.24 0-.44.2-.44.46 0 .25.2.45.45.45h.49a.45.45 0 0 0 0-.9z"/></svg>