<svg xmlns="http://www.w3.org/2000/svg" width="34" height="45" viewBox="0 0 34 45"><path fill="#d6d4d3" d="M32.98 6.05l-2.3-4.62c-.29-.57-1.22-.57-1.51 0L27.4 5l-1.78-3.57c-.29-.57-1.22-.57-1.51 0L22.34 5l-1.78-3.57c-.28-.57-1.22-.57-1.51 0l-2.19 4.41-2.2-4.41c-.28-.57-1.22-.57-1.51 0L11.38 5 9.6 1.43c-.28-.57-1.22-.57-1.5 0L6.32 5 4.55 1.43c-.29-.57-1.22-.57-1.51 0L.74 6.05a.84.84 0 0 0-.74.84v37.26c0 .47.38.85.84.85h32.03c.47 0 .85-.38.85-.85V6.9a.85.85 0 0 0-.74-.84zM1.69 43.3V7.62c.14-.08.25-.2.33-.35L3.79 3.7l1.78 3.57c.28.57 1.22.57 1.51 0L8.85 3.7l1.78 3.57c.28.57 1.22.57 1.5 0l1.78-3.57 1.77 3.57c.15.29.44.47.76.47h.84c.32 0 .61-.19.75-.47l1.78-3.57 1.77 3.57c.29.57 1.23.57 1.51 0l1.78-3.57 1.77 3.57c.29.57 1.22.57 1.51 0l1.77-3.57 1.78 3.57c.07.15.19.27.33.35v35.69zM16.02 17.9h11.8a.85.85 0 0 0 0-1.7h-11.8a.85.85 0 1 0 0 1.7zm0 4.23h11.8a.85.85 0 0 0 0-1.69h-11.8a.85.85 0 1 0 0 1.7zm0 4.24h11.8a.85.85 0 0 0 0-1.7h-11.8a.85.85 0 1 0 0 1.7zm0 4.23h11.8a.85.85 0 0 0 0-1.7h-11.8a.85.85 0 1 0 0 1.7zm-3.65-11.97a.84.84 0 0 0-1.08.5l-3.28 9.08-2.75-1.32a.85.85 0 1 0-.73 1.53l3.59 1.73a.88.88 0 0 0 .69.01c.22-.09.39-.27.47-.5l3.59-9.95a.84.84 0 0 0-.5-1.08zM28.66 32.3H15.17a.85.85 0 0 0-.84.84v5.09c0 .46.38.84.84.84h13.49c.47 0 .84-.38.84-.84v-5.09a.84.84 0 0 0-.84-.84zm-12.64 5.08v-3.39h11.8v3.39z"/></svg>