<svg xmlns="http://www.w3.org/2000/svg" xmlns:xlink="http://www.w3.org/1999/xlink" width="756" height="121" fill="none" xmlns:v="https://vecta.io/nano"><g fill="#00a0de"><path d="M79.1 116h-71a4.2 4.2 0 0 1-2.97-7.17c.788-.787 1.856-1.23 2.97-1.23h71c1.114 0 2.182.443 2.97 1.23A4.2 4.2 0 0 1 79.1 116h0zM83.3 9.2a2.05 2.05 0 0 1-2.1 2.1H77a2.11 2.11 0 0 1-2.1-2.1V4.9A2.05 2.05 0 0 1 77 2.8h4.3a2.05 2.05 0 0 1 2.1 2.1l-.1 4.3zm-71.1 0a2.11 2.11 0 0 1-2.1 2.1H5.8a2.11 2.11 0 0 1-2.1-2.1V4.9a2.11 2.11 0 0 1 2.1-2.1h4.3a2.11 2.11 0 0 1 2.1 2.1v4.3zM8 70.5a4.23 4.23 0 0 1-4.2-4.2V18.7a4.2 4.2 0 0 1 8.4 0v47.6a4.17 4.17 0 0 1-.309 1.614A4.16 4.16 0 0 1 8 70.5h0z"/><path d="M79.1 70.5a4.23 4.23 0 0 1-4.2-4.2V18.7a4.2 4.2 0 1 1 8.4 0v47.6a4.16 4.16 0 0 1-4.2 4.2h0zM67.3 11.3H19.7a4.2 4.2 0 1 1 0-8.4h47.6a4.23 4.23 0 0 1 4.2 4.2 4.1 4.1 0 0 1-4.2 4.2h0zm16 64.5a2.11 2.11 0 0 0-2.1-2.1H77a2.11 2.11 0 0 0-2.1 2.1v4.3a2.11 2.11 0 0 0 2.1 2.1h4.3a2.11 2.11 0 0 0 2.1-2.1l-.1-4.3zm-71 0a2.05 2.05 0 0 0-2.1-2.1H5.9a2.11 2.11 0 0 0-2.1 2.1v4.3a2.05 2.05 0 0 0 2.1 2.1h4.3a2.11 2.11 0 0 0 2.1-2.1v-4.3zm55-2.1H19.7a4.2 4.2 0 1 0 0 8.4h47.6a4.23 4.23 0 0 0 4.2-4.2 4.1 4.1 0 0 0-4.2-4.2h0zm.3-3.4a4.3 4.3 0 0 1-2.8-1.1L16.7 21.3a4.08 4.08 0 0 1-.1-5.7 4 4 0 0 1 5.6-.1l48.1 47.9a4.08 4.08 0 0 1 .1 5.7 3.78 3.78 0 0 1-2.8 1.2z"/><path d="M19.5 70.3a3.78 3.78 0 0 1-2.8-1.2 4.08 4.08 0 0 1 .1-5.7l48.1-47.9a3.87 3.87 0 0 1 5.6.1 4.08 4.08 0 0 1-.1 5.7L22.3 69.2a4.3 4.3 0 0 1-2.8 1.1h0zM149.1 36h-11.6l.4.1h9.8l1.4-.1zm243.8 45.7l8.5-28.4 8.5 28.4h11.8L407 37.5h-11.2l-.3.9-14.4 43.3h11.8zm-66.3-44.4h-13.2l-15 14.7V37.3h-11.1v44.3h11.1V67.2l3-3.3L316 81.6h13.7l-20.8-26.2 17.7-18.1z"/><path d="M213.5 37.3v4.2c0-.1-.1-.1-.1-.2-4.2-5.2-11.8-5.2-11.9-5.2h-.4c-10.3-.1-18.1 6.8-21 16.2-.729 2.296-1.1 4.691-1.1 7.1v.9a23.17 23.17 0 0 0 22.4 22.4c3.1 0 7.6-.7 10.2-3.2.676-.631 1.279-1.336 1.8-2.1v4.2h11.7V37.4l-11.6-.1zm0 27.6c-.1.2-.2.5-.3.7a12.92 12.92 0 0 1-11.3 7 12 12 0 0 1-7.8-2.8c-1.34-1.186-2.429-2.63-3.202-4.244s-1.214-3.368-1.298-5.156v-.8c.008-2.231.557-4.428 1.6-6.4a12.92 12.92 0 0 1 11.3-7 12 12 0 0 1 7.8 2.8 13.47 13.47 0 0 1 3.3 4.5 13.08 13.08 0 0 1 1.2 4.9v.8c-.075 1.964-.516 3.897-1.3 5.7h0zm148.8-27.3v4.2c0-.1-.1-.1-.1-.2-4.2-5.1-11.8-5.2-11.8-5.2h-.4c-10.2-.1-18 6.8-20.9 16.1-.721 2.264-1.092 4.624-1.1 7v.9c.5 12.3 10.3 22.1 22.3 22.3 3.1 0 7.5-.7 10.2-3.2.676-.631 1.279-1.336 1.8-2.1v4.2h11.6v-44h-11.6zm0 27.5c-.1.2-.2.5-.3.7a12.83 12.83 0 0 1-11.3 6.9 12.22 12.22 0 0 1-7.8-2.8 13.35 13.35 0 0 1-4.5-9.3v-.8a13.8 13.8 0 0 1 1.6-6.4 12.79 12.79 0 0 1 11.2-6.9 12.22 12.22 0 0 1 7.8 2.8 13.47 13.47 0 0 1 3.3 4.5c.702 1.509 1.109 3.138 1.2 4.8v.8c.018 1.965-.392 3.91-1.2 5.7zm-190.1-7.3a22.42 22.42 0 0 0-2.81-9.837 22.41 22.41 0 0 0-6.89-7.563c-5.7-4.7-14.2-4.5-14.2-4.5h-11.6v-14H164V10.8h-38.4v70.6h23.1a10.37 10.37 0 0 0 1.6-.1h0a23.67 23.67 0 0 0 20.9-15.8c.721-2.229 1.092-4.557 1.1-6.9a2.49 2.49 0 0 0-.1-.8h0zM158 64.3a13.42 13.42 0 0 1-3.735 3.892A13.41 13.41 0 0 1 149.3 70.3h-12.6V46.9l9.5-.1h3c.3.1.7.1 1 .2a13 13 0 0 1 4.8 2.1 11.69 11.69 0 0 1 3.275 3.739A11.7 11.7 0 0 1 159.7 57.6v.7c.034 2.123-.557 4.21-1.7 6h0zm120.1 15.8c.007-.054.001-.109-.016-.161s-.046-.099-.084-.139c.007-.054.001-.109-.016-.161s-.046-.099-.084-.139h0v-.2c-.395-3.653-.595-7.325-.6-11V36.7h-11.7v23.5c-.1 1.8-.5 5.1-1.9 7.2-.932 1.311-2.161 2.384-3.586 3.131s-3.005 1.148-4.614 1.169h-.9a11 11 0 0 1-4.8-1.7 10.59 10.59 0 0 1-4.1-5.6v-.1c-.329-1.243-.53-2.516-.6-3.8h0a7.51 7.51 0 0 1-.1-1.1h0c-.6-8.9 0-22.6 0-22.6l-.3-.1h-11v23.4a36.14 36.14 0 0 0 1.8 10.7 21.75 21.75 0 0 0 2.4 4.5h0a2.7 2.7 0 0 0 .7.8 6.47 6.47 0 0 1 .8.9c1.487 1.522 3.252 2.744 5.2 3.6h.1a20.12 20.12 0 0 0 8.1 1.5c.502.024 1.005-.01 1.5-.1 0 0 7.6.1 12-6.1.1 1.7.4 4.2 1.2 5.1h10.8a2.93 2.93 0 0 0-.2-.9h0z"/></g><path d="M743.4 66.3a12.34 12.34 0 0 1-10.8 6.7c-6.6 0-12-5.5-12.4-12.5v-.8a14 14 0 0 1 1.5-6.4 12.1 12.1 0 0 1 4.441-5.013c1.922-1.22 4.151-1.873 6.428-1.883A12.1 12.1 0 0 1 743.5 53.2l.2.4 9.8-4-.2-.4a23.26 23.26 0 0 0-21.1-14.1c-10.2 0-19.1 6.8-22.2 17a26.53 26.53 0 0 0-1.1 7.4v.9c.5 13.1 10.7 23.4 23.3 23.4 4.405-.037 8.709-1.326 12.41-3.716s6.645-5.784 8.49-9.784l.2-.4-9.6-3.9-.3.3zM542.5 39.5a14.69 14.69 0 0 0-1.3-.9c-.1-.1-.2-.1-.3-.2l-.8-.5-.4-.2c-.5-.3-1-.5-1.4-.7-.2-.1-.3-.1-.5-.2s-.5-.2-.8-.3-.3-.1-.5-.2h-.1c-.4-.1-.8-.3-1.1-.4s-.5-.1-.7-.2-.5-.1-.7-.2-.6-.1-1-.2c-.2 0-.5-.1-.7-.1a4.1 4.1 0 0 0-1.1-.1h-.5c-.5 0-.9-.1-1.4-.1h-.1c-.602-.017-1.204.017-1.8.1h-.3c-.5.1-1 .1-1.5.2l-.4.1-1.4.3-.3.1c-.5.1-1 .3-1.5.4l-.2.1-1.6.7a24.2 24.2 0 0 0-11.7 11.5l-.2.4A28.4 28.4 0 0 0 507 52a26.53 26.53 0 0 0-1.1 7.4v.9c.096 2.025.398 4.036.9 6l.1.5c.312.987.679 1.955 1.1 2.9.1.2.2.3.2.5l.2.4c.474.934 1.008 1.836 1.6 2.7l.2.2 1.9 2.4.2.2a4.63 4.63 0 0 0 .7.7l.1.1a17.76 17.76 0 0 0 1.4 1.3c.1.1.2.2.3.2.2.2.5.4.7.6l.2.1c.5.3.9.7 1.4 1l.3.2.8.5.3.2c.5.2.9.5 1.4.7.2.1.3.1.5.2s.5.2.8.3.4.1.6.2c.4.1.8.3 1.1.4s.5.1.7.2.5.1.7.2.6.1 1 .2c.2 0 .5.1.7.1a4.1 4.1 0 0 0 1.1.1h.5c.5 0 .9.1 1.5.1.602.017 1.204-.017 1.8-.1h.3c.505-.017 1.008-.084 1.5-.2l.4-.1 1.4-.3.3-.1c.5-.1 1-.3 1.5-.4l.3-.1 1.5-.6h.1a23.79 23.79 0 0 0 11.7-11.5l.2-.4-10.6-4.4-.2.4a12.36 12.36 0 0 1-10.8 6.6 11.17 11.17 0 0 1-4.8-1c-3.8-2.1-5.8-4.6-6.4-8h33.5v-.4c.5-3.7 1-16.6-8.3-23.6zm-2.2 15.2h-22.2c.2-.5.4-.9.6-1.4a12.31 12.31 0 0 1 10.9-6.9 11.17 11.17 0 0 1 4.8 1 12.73 12.73 0 0 1 5.9 7.3zm-49.6 4.9l-.2.4c-3.8 7-10.2 11.1-17.2 11.1-11.2 0-20.3-10.7-20.3-23.9s9.1-23.9 20.3-23.9c8.2 0 15.6 5.8 18.7 14.7l.2.4 11.7-5-.2-.4c-5.2-13.7-17.1-22.5-30.5-22.5-18.2 0-33 16.4-33 36.6s14.8 36.6 33 36.6c11.6 0 22.5-6.9 28.5-18.1l.4-.7v-.1l-11.4-5.2zm113.2-7c-3.2-10.3-11.8-17-21.9-17h-.8c-.1 0-7.3.1-11.8 4.8v-3.6h-13v72h13V80a9.2 9.2 0 0 0 1.1 1.1h.1c3.1 2.9 8 3.4 10.8 3.4 6.192-.158 12.088-2.682 16.478-7.052A24.23 24.23 0 0 0 605 61v-.9a21 21 0 0 0-1.1-7.5h0zm-31.2-3a12.64 12.64 0 0 1 7.8-2.8 12.89 12.89 0 0 1 11.3 7c1.032 2.013 1.58 4.238 1.6 6.5v.8a13.58 13.58 0 0 1-1.312 5.149A13.59 13.59 0 0 1 588.9 70.5a12.64 12.64 0 0 1-7.8 2.8 12.89 12.89 0 0 1-11.3-7c-.1-.2-.2-.5-.3-.7-.809-1.826-1.218-3.803-1.2-5.8V59c.102-1.692.509-3.352 1.2-4.9.727-1.715 1.819-3.25 3.2-4.5h0zm80.9 17.3a10.61 10.61 0 0 0-3.3-7.5l-.1-.1c-.871-.839-1.808-1.608-2.8-2.3l.7-1a9.55 9.55 0 0 0 2.507-3.274c.587-1.261.892-2.635.893-4.026 0-5.3-5.3-10.7-11.4-11.6l-3.8-.2h-.6L611 37v45.1h12.1l6-.1h9.3c6.6-.5 12.4-4.6 14.4-10.2a14.23 14.23 0 0 0 .8-4.5v-.4zM641 68.7a4.53 4.53 0 0 1-3.3 3.9c-.2.1-.5.1-.8.2a20.21 20.21 0 0 1-3.3.3h-9.9V62.5h9.5a18.64 18.64 0 0 1 4.1.4h.1c.1 0 .1 0 .2.1s.3.1.5.2l.1.1c.1.1.2.1.4.2a4.63 4.63 0 0 1 1.568 1.475A4.62 4.62 0 0 1 640.9 67v.9s.2.7.1.8zm-3-15.8a6 6 0 0 1-1.8.5h-12.6v-7.5h12.7a3.77 3.77 0 0 1 1.2.4 4 4 0 0 1 2.2 3.1c.1 1.8-.4 2.8-1.7 3.5h0zm66.9 28.8a1.89 1.89 0 0 1-.2-.8c.007-.054.001-.109-.016-.161s-.046-.099-.084-.139l-.1-.5c-.4-2.5-.5-7.3-.6-10.9V37.1h-12.6v24c-.1 1.8-.5 5-1.8 7a9.89 9.89 0 0 1-3.463 2.988A9.9 9.9 0 0 1 681.6 72.2h-.8a9.42 9.42 0 0 1-4.6-1.6 10.87 10.87 0 0 1-3.9-5.3v-.1a23.33 23.33 0 0 1-.6-3.6v-.1c0-.4-.1-.7-.1-.9v-.2c-.6-8.8 0-22.4 0-22.6v-.6h-12.3v23.9a38.54 38.54 0 0 0 1.8 10.8 25 25 0 0 0 2.5 4.6c.201.323.436.625.7.9a6.47 6.47 0 0 1 .8.9 16.76 16.76 0 0 0 5.4 3.7h.1a19.66 19.66 0 0 0 8.1 1.5h.2c.502.024 1.005-.01 1.5-.1a16.77 16.77 0 0 0 11.7-5.4c.2 2.1.6 3.5 1.3 4.2l.1.1h11.6l-.2-.6z" fill="#3d3834"/><g fill="#00a0de"><path d="M262.6 24.7a9.07 9.07 0 0 1-2.968 2.481A9.08 9.08 0 0 1 255.9 28.2a9 9 0 0 1-4.121-.86c-1.286-.608-2.41-1.513-3.279-2.64l-5.9 3.2a14.29 14.29 0 0 0 5.249 6.108c2.3 1.49 4.979 2.289 7.719 2.299s5.425-.767 7.736-2.24A14.29 14.29 0 0 0 268.6 28l-6-3.3zM135.3 107h-3.4v8.8h-3.3V107h-3.4v-2.8h10.2v2.8h-.1zm7.2-2.8h3.3v1.7a4.21 4.21 0 0 1 1.556-1.413c.629-.332 1.332-.5 2.044-.487 2.7 0 5.3 2.1 5.3 6s-2.5 6-5.3 6c-.691.016-1.376-.13-2.001-.425s-1.172-.732-1.599-1.275v5h-3.3v-15.1zm8.9 5.8a2.83 2.83 0 0 0-1.983-2.321c-.518-.156-1.071-.159-1.591-.009a2.82 2.82 0 0 0-2.01 2.297c-.079.536-.003 1.083.221 1.576s.583.911 1.038 1.205a2.82 2.82 0 0 0 1.525.452c.398-.013.79-.108 1.15-.279a2.9 2.9 0 0 0 .945-.713 2.93 2.93 0 0 0 .582-1.031c.121-.38.163-.78.123-1.177z"/><use xlink:href="#B"/><path d="M191.3 115.8H188v-4.4h-4v4.4h-3.3v-11.6h3.3v4.5h4v-4.5h3.3v11.6zm7.8-5.8c-.011-.8.14-1.593.444-2.333a5.9 5.9 0 0 1 1.324-1.97c.57-.561 1.248-1 1.992-1.292a5.92 5.92 0 0 1 2.34-.405 5.7 5.7 0 0 1 2.531.468A5.69 5.69 0 0 1 209.8 106l-1.9 1.9c-.34-.373-.759-.665-1.226-.855s-.97-.274-1.474-.245c-.394.025-.78.128-1.134.303a3.01 3.01 0 0 0-.931.715 3 3 0 0 0-.585 1.018c-.126.374-.177.77-.15 1.164a2.92 2.92 0 0 0 .743 2.241c.273.301.606.542.977.707a2.92 2.92 0 0 0 1.18.252 4 4 0 0 0 2.7-1.2l1.9 1.9a6.17 6.17 0 0 1-9.631-.459A6.16 6.16 0 0 1 199.1 110h0zm28.8 5.8h-3.3V107h-4v8.8h-3.3v-11.6h10.5v11.6h.1zm7.8-5.8c.012-.81.185-1.61.509-2.352a6.09 6.09 0 0 1 1.38-1.972c.587-.558 1.279-.995 2.037-1.282s1.564-.422 2.374-.394a6.01 6.01 0 0 1 2.358.398c.751.289 1.436.727 2.015 1.287a5.99 5.99 0 0 1 1.352 1.972A6.01 6.01 0 0 1 248.2 110a6.07 6.07 0 0 1-.509 2.352 6.09 6.09 0 0 1-1.38 1.972 6.1 6.1 0 0 1-2.037 1.282c-.757.288-1.564.422-2.374.394-.809.044-1.618-.079-2.377-.362a5.88 5.88 0 0 1-2.033-1.284 5.87 5.87 0 0 1-1.35-1.99c-.308-.749-.458-1.554-.44-2.364h0zm9.3 0a3.06 3.06 0 0 0-.183-1.202 3.04 3.04 0 0 0-.638-1.034 3.05 3.05 0 0 0-.992-.704c-.374-.165-.778-.254-1.187-.26a2.94 2.94 0 0 0-2.216.928c-.284.302-.5.661-.635 1.052A2.94 2.94 0 0 0 239 110a3.06 3.06 0 0 0 .183 1.202 3.04 3.04 0 0 0 .638 1.034 3.05 3.05 0 0 0 .992.704c.374.165.778.254 1.187.26a2.94 2.94 0 0 0 2.216-.928c.284-.302.5-.661.635-1.052A2.94 2.94 0 0 0 245 110h0zm11-5.8h3.3v1.7a4.21 4.21 0 0 1 1.556-1.413c.629-.332 1.332-.5 2.044-.487 2.7 0 5.3 2.1 5.3 6s-2.5 6-5.3 6c-.691.016-1.376-.13-2.001-.425s-1.172-.732-1.599-1.275v5H256v-15.1zm8.9 5.8c-.071-.54-.296-1.047-.649-1.462a2.83 2.83 0 0 0-1.337-.877c-.521-.157-1.076-.161-1.599-.012s-.992.448-1.35.857a2.83 2.83 0 0 0-.447 3.036 2.83 2.83 0 0 0 2.582 1.658c.398-.013.79-.108 1.15-.279a2.9 2.9 0 0 0 .945-.713 2.93 2.93 0 0 0 .582-1.031c.121-.38.163-.78.123-1.177h0zm19.7-3h-3.4v8.8h-3.3V107h-3.4v-2.8h10.2v2.8h-.1zm17.8 8.8h-3.3v-4.4h-4v4.4h-3.3v-11.6h3.3v4.5h4v-4.5h3.3v11.6z"/><use xlink:href="#B" x="148.3"/><path d="M339.2 115.8H336v-3.7h-1.8l-2.4 3.7H328l3-4.3c-.729-.239-1.359-.711-1.793-1.343A3.49 3.49 0 0 1 328.6 108c0-2.3 1.7-3.9 4.7-3.9h6.1v11.7h-.2zm-3.2-6.1v-2.9h-2.2c-1.2 0-1.9.5-1.9 1.5s.7 1.4 1.9 1.4h2.2zm23.5-5.5h3.3v4.8l4.1-4.8h3.8l-4.3 4.8 4.8 6.8h-3.9l-3.1-4.4-1.5 1.6v2.8h-3.3v-11.6h.1zm17.4 5.8c.011-.81.185-1.61.509-2.352a6.09 6.09 0 0 1 1.38-1.972c.587-.558 1.279-.995 2.037-1.282s1.564-.422 2.374-.394a6.01 6.01 0 0 1 2.358.398c.751.289 1.436.727 2.015 1.287a5.99 5.99 0 0 1 1.352 1.972A6.01 6.01 0 0 1 389.4 110c-.011.81-.185 1.61-.509 2.352a6.09 6.09 0 0 1-1.38 1.972 6.1 6.1 0 0 1-2.037 1.282c-.757.288-1.564.422-2.374.394-.809.044-1.618-.079-2.377-.362a5.88 5.88 0 0 1-2.033-1.284 5.87 5.87 0 0 1-1.35-1.99c-.308-.749-.458-1.554-.44-2.364h0zm9.3 0a3.06 3.06 0 0 0-.183-1.202 3.04 3.04 0 0 0-.638-1.034 3.05 3.05 0 0 0-.992-.704c-.374-.165-.778-.254-1.187-.26a2.94 2.94 0 0 0-2.216.928c-.284.302-.5.661-.635 1.052a2.94 2.94 0 0 0-.149 1.22 3.06 3.06 0 0 0 .183 1.202 3.04 3.04 0 0 0 .638 1.034 3.05 3.05 0 0 0 .992.704c.374.165.778.254 1.187.26a3 3 0 0 0 1.196-.246 2.99 2.99 0 0 0 .999-.702 3 3 0 0 0 .637-1.042 3.02 3.02 0 0 0 .168-1.21h0zm11-5.8h3.3l3.1 4.9 3.2-4.9h3.3v11.6h-3.3v-7l-3.2 4.8-3.2-4.7v6.9h-3.2v-11.6zm31.8 11.6h-3.3V107h-4v8.8h-3.3v-11.6H429v11.6z"/><use xlink:href="#B" x="274.9"/><path d="M466.2 115.8h-3.3v-4.4h-4v4.4h-3.3v-11.6h3.3v4.5h4v-4.5h3.3v11.6zm19.1 0h-3.2v-6.7l-4.5 6.7h-3.1v-11.6h3.2v6.8l4.5-6.8h3.1v11.6zm18.6 0h-3.3v-3.7h-1.8l-2.4 3.7h-3.8l3-4.3c-.729-.239-1.359-.711-1.793-1.343A3.49 3.49 0 0 1 493.2 108c0-2.3 1.7-3.9 4.7-3.9h6.1l-.1 11.7zm-3.3-6.1v-2.9h-2.2c-1.2 0-1.9.5-1.9 1.5s.7 1.4 1.9 1.4h2.2z"/></g><defs ><path id="B" d="M161.8 112.4c0-2.5 1.9-3.7 4.7-3.7a7.4 7.4 0 0 1 2.8.5v-.2c0-1.4-.8-2.1-2.5-2.1a8.29 8.29 0 0 0-3.2.6l-.8-2.5c1.407-.655 2.95-.963 4.5-.9.704-.051 1.41.038 2.08.261a5.36 5.36 0 0 1 1.82 1.039c.459.495.811 1.078 1.035 1.715a4.92 4.92 0 0 1 .265 1.985v6.7h-3.2v-1.3a4.42 4.42 0 0 1-1.58 1.146 4.41 4.41 0 0 1-1.92.354c-2.2 0-4-1.2-4-3.6zm7.5-.7v-.6c-.659-.295-1.378-.432-2.1-.4-1.4 0-2.3.6-2.3 1.6s.7 1.4 1.8 1.4c1.6 0 2.6-.8 2.6-2z"/></defs></svg>