<svg xmlns="http://www.w3.org/2000/svg" width="49" height="32" viewBox="0 0 49 32"><path fill="#fff" d="M48.56 22.74l-.51-7.85A3.82 3.82 0 0 0 46.56 12a3.8 3.8 0 0 0-2.54-.74L46.28 9a.87.87 0 1 0-1.24-1.22l-2.29 2.31-1.34-5.85A5.42 5.42 0 0 0 36.29.16H13.07a5.42 5.42 0 0 0-5.12 4.07L6.64 9.95 4.48 7.77A.87.87 0 1 0 3.24 9l2.28 2.3c-1-.1-1.96.13-2.73.71A3.88 3.88 0 0 0 1.3 14.9l-.5 7.85a4.05 4.05 0 0 0 3.38 4.32v3.56c0 .48.39.87.87.87h7.85c.48 0 .87-.39.87-.87v-3.48h21.81v3.48c0 .48.39.87.87.87h7.85c.49 0 .88-.39.88-.87v-3.56a4.08 4.08 0 0 0 3.38-4.32zM9.65 4.62a3.71 3.71 0 0 1 3.42-2.72h23.22a3.73 3.73 0 0 1 3.42 2.72l1.37 5.98H8.28zm28.83 7.72c-4.2.8-10.15 1.8-13.8 1.8-3.66 0-9.61-.99-13.81-1.8zm-26.45 17.4H5.92v-2.6h6.11zm31.4 0h-6.1v-2.6h6.1zm2.76-5.09a2.4 2.4 0 0 1-1.77.75H4.94a2.4 2.4 0 0 1-1.77-.75 2.38 2.38 0 0 1-.63-1.8l.5-7.85c.05-.67.33-1.24.81-1.6a2.16 2.16 0 0 1 1.77-.36c.52.12 12.77 2.85 19.06 2.85 6.28 0 18.54-2.73 19.05-2.84a2.14 2.14 0 0 1 1.77.35c.48.36.77.93.81 1.6l.51 7.86c.04.68-.18 1.32-.63 1.8zm-5.81-9.7a3.93 3.93 0 1 0-.01 7.86 3.93 3.93 0 0 0 .01-7.85zm0 6.1a2.18 2.18 0 1 1 0-4.37 2.18 2.18 0 0 1 0 4.37zm-31.4-6.1a3.93 3.93 0 1 0-.01 7.86 3.93 3.93 0 0 0 .01-7.85zm0 6.1a2.17 2.17 0 1 1 0-4.35c1.2 0 2.18.97 2.18 2.17s-.98 2.18-2.18 2.18zm4.18-18.02l-2.62 2.6a.87.87 0 1 0 1.23 1.24l2.62-2.61a.87.87 0 1 0-1.23-1.23z"/></svg>