<svg xmlns="http://www.w3.org/2000/svg" width="49" height="33" viewBox="0 0 49 33"><path fill="#fff" d="M44.77.8H4.23A4.24 4.24 0 0 0 0 5.04v23.74C0 31.1 1.9 33 4.23 33h40.54C47.1 33 49 31.1 49 28.77V5.03C49 2.7 47.1.81 44.77.81zm2.54 27.97c0 1.4-1.14 2.54-2.54 2.54H4.23a2.54 2.54 0 0 1-2.54-2.54V5.03c0-1.4 1.14-2.53 2.54-2.53h40.54c1.4 0 2.54 1.14 2.54 2.53zM13 19v-2H4v2zm4 4v-2H4v2zm5 0v-2h-3v2zm1-4v-2h-9v2zm10 0v-2h-8v2zm10 0v-2h-8v2zm.93-13.96H29.57a.85.85 0 0 0-.85.85v5.93c0 .47.38.85.85.85h14.36c.47 0 .85-.38.85-.85V5.89a.85.85 0 0 0-.85-.85zm-.84 5.93H30.41V6.74h12.68z"/></svg>