<svg xmlns="http://www.w3.org/2000/svg" width="29" height="22" viewBox="0 0 29 22"><path fill="#fff" d="M16.27 14.72c.05.3.13.6.23.89H4.97a3.2 3.2 0 1 0 2.96 2h6.13a3.2 3.2 0 0 0 6.1 1.89A6.38 6.38 0 0 0 29 13.57a6.36 6.36 0 0 0-6.43-6.4c-.3 0-.6.02-.9.06L23.02 2h3.56V0h-5.12l-.76 3L0 2.98l2.2 11.74zM6.17 18.8a1.2 1.2 0 0 1-2.4 0c0-.66.54-1.19 1.2-1.19.66 0 1.2.53 1.2 1.19zm12.15-4.08A4.42 4.42 0 1 1 27 13.57a4.42 4.42 0 0 1-8.68 1.15zM17.02 20a1.2 1.2 0 1 1 0-2.39 1.2 1.2 0 1 1 0 2.39zM20.2 5l-.77 3a6.38 6.38 0 0 0-3.2 4.72H3.87L2.41 4.98zm3.4 5.77h-2v1.8h-1.81v2h1.8v1.81h2v-1.81h1.81v-2h-1.8z"/></svg>