<svg xmlns="http://www.w3.org/2000/svg" width="46" height="46" viewBox="0 0 46 46"><path fill="#d6d4d3" d="M45.26 1.07a.86.86 0 0 0-1.1-.54l-6.36 2.2c-.3.1-.51.36-.57.67l-5.22 29.96a7.8 7.8 0 0 0-10.17 9.06h-1.93V14.78a.86.86 0 0 0-.86-.87H2.6a.87.87 0 0 0-.86.87v27.64H.87a.87.87 0 0 0 0 1.73h22.14a.86.86 0 0 0 .8-1.19 6.04 6.04 0 0 1 5.62-8.31 6.03 6.03 0 0 1 2.97.76.84.84 0 0 0 .65-.04.8.8 0 0 0 .3-.24c.06-.08.11-.16.15-.26l.03-.15L38.85 4.2l5.88-2.03a.86.86 0 0 0 .53-1.1zM18.18 42.42H3.47v-7.77h14.71zm0-9.5H3.47v-7.77h14.71zm0-9.5H3.47v-7.78h14.71zm11.25 12.1a5.2 5.2 0 1 0 0 10.38 5.2 5.2 0 0 0 0-10.39zm0 8.63a3.46 3.46 0 1 1 0-6.92 3.46 3.46 0 0 1 0 6.92z"/></svg>