<svg xmlns="http://www.w3.org/2000/svg" width="39" height="33" viewBox="0 0 39 33"><path fill="#5f8647" d="M37.95 21.63a1.04 1.04 0 0 0-1.3-.65l-16.38 5.36a4.4 4.4 0 0 0-3.74-2.06h-.19l-.23.01L9.6 4.97a1.01 1.01 0 0 0-.52-.58L2.5 1.1a1.03 1.03 0 0 0-1.38.45 1 1 0 0 0 .45 1.36L7.8 6l6.36 18.95a4.3 4.3 0 0 0-2.05 3.86A4.38 4.38 0 0 0 16.52 33h.18a4.38 4.38 0 0 0 4.21-4.72l16.38-5.36c.54-.18.83-.76.66-1.3zm-21.33 9.33a2.34 2.34 0 0 1-2.45-2.22 2.33 2.33 0 0 1 2.26-2.41h.1c1.26 0 2.3.97 2.35 2.23a2.35 2.35 0 0 1-2.26 2.4zm1.78-7.65a1.03 1.03 0 0 0 1.3.64l15.81-5.17a1.01 1.01 0 0 0 .66-1.29l-5.2-15.47a1.02 1.02 0 0 0-.5-.59 1.05 1.05 0 0 0-.8-.06l-7.9 2.6-7.9 2.58c-.55.17-.84.75-.66 1.29zm3.04-17.1l1.26 3.75a1.03 1.03 0 0 0 1.3.65c.53-.18.82-.76.65-1.3l-1.26-3.74 5.96-1.95 4.55 13.55-13.87 4.54-4.55-13.55z"/></svg>