<svg xmlns="http://www.w3.org/2000/svg" width="51" height="30" viewBox="0 0 51 30"><path fill="#5f8647" d="M48 10.52a6.62 6.62 0 0 0-4.96-2.12h-4.5V6l-.01-.12-.01-.05-.01-.06-.01-.07-.01-.05-.02-.06-.03-.06-.02-.05-.03-.05-.03-.05-.03-.05-.04-.06-.03-.04-.07-.08-.01-.01L33.52.37a1.2 1.2 0 0 0-.87-.37H19.89c-.33 0-.64.14-.88.37L14.36 5.1h-.01a.32.32 0 0 0-.08.09l-.03.04-.04.05-.03.06-.03.05-.03.05-.02.05-.02.06-.02.06-.01.05-.01.06-.01.07-.01.05-.01.11V25.8c0 .7.55 1.26 1.23 1.26h3.26A3.86 3.86 0 0 0 22.2 30c1.79 0 3.3-1.26 3.72-2.94h13.04A3.87 3.87 0 0 0 42.68 30a3.85 3.85 0 0 0 3.71-2.94h2.37c.68 0 1.24-.57 1.24-1.26v-9.33c.01-2.44-.68-4.51-2-5.95zM34.33 4.74h-6.98V2.52h4.78zM20.4 2.51h4.48v2.22h-6.66zm15.67 4.74v17.33H25.74a3.85 3.85 0 0 0-3.53-2.36c-1.58 0-2.94.98-3.53 2.37l-.16-.01h-2.05V7.25zM22.21 27.52c-.75 0-1.37-.63-1.37-1.4 0-.76.62-1.38 1.37-1.38.76 0 1.37.63 1.37 1.39 0 .76-.61 1.39-1.37 1.39zm20.48 0c-.75 0-1.37-.63-1.37-1.4 0-.76.62-1.38 1.37-1.38.75 0 1.37.63 1.37 1.39 0 .76-.61 1.39-1.37 1.39zm3.53-2.94a3.85 3.85 0 0 0-3.52-2.35c-1.58 0-2.94.97-3.52 2.35h-.63V10.91h4.5c2.82 0 4.5 2.1 4.5 5.6v8.07zM11.76 9.78H4.99c-.67 0-1.23.56-1.23 1.25s.56 1.25 1.23 1.25h6.77a1.25 1.25 0 1 0 0-2.51zm0 4.88H1.24c-.68 0-1.24.57-1.24 1.26 0 .69.56 1.25 1.24 1.25h10.52a1.25 1.25 0 1 0 0-2.51zm0 4.89H4.99c-.67 0-1.23.56-1.23 1.25 0 .7.56 1.26 1.23 1.26h6.77c.68 0 1.24-.57 1.24-1.26 0-.69-.56-1.25-1.24-1.25z"/></svg>