<svg xmlns="http://www.w3.org/2000/svg" width="32" height="32" viewBox="0 0 32 32"><path d="M31.81 12.19a2.15 2.15 0 0 0-2-1.25l.41-1.04c.2-.53.19-1.11-.05-1.62a2.15 2.15 0 0 0-2.26-1.24 2.1 2.1 0 0 0-1.38-1.74 2.2 2.2 0 0 0-2.8 1.23l-.29.77a2.2 2.2 0 0 0-2.34-.36c-.53.23-.93.65-1.14 1.18l-.72 1.86c-.14.34.04.73.4.87a.7.7 0 0 0 .89-.4l.72-1.85c.07-.2.22-.35.41-.43a.79.79 0 0 1 1.04.39c.09.18.09.4.02.58l-.91 2.34-1.01 2.62c-.14.34.04.73.4.87a.7.7 0 0 0 .89-.4l1.01-2.61L25.02 7a.8.8 0 0 1 1.46-.04c.08.18.09.4.01.58l-.32.84-1.92 4.95c-.14.35.04.74.4.87.08.03.16.05.24.05a.7.7 0 0 0 .65-.44l1.92-4.95a.79.79 0 0 1 1.45-.04c.09.19.09.4.02.59l-1.12 2.88-1.92 4.95c-.14.35.04.74.4.87a.7.7 0 0 0 .89-.39l1.92-4.95c.07-.19.22-.34.41-.43a.8.8 0 0 1 1.04.39c.09.19.09.4.02.59l-2.14 5.5-.02.06-.04.13-3.45 11.42-11.26-4.2a.7.7 0 0 0-.89.4c-.13.35.05.74.4.87l11.96 4.45a.72.72 0 0 0 .55-.03c.17-.08.3-.23.36-.41l3.69-12.23 2.13-5.48c.2-.53.18-1.1-.05-1.62zM19.34 24.68l-.99-12.71V6.1c0-.56-.22-1.1-.63-1.5a2.17 2.17 0 0 0-2.32-.47V3.02c0-.57-.22-1.1-.63-1.5a2.19 2.19 0 0 0-2.56-.37A2.19 2.19 0 0 0 10.29 0c-1.2 0-2.17.95-2.17 2.12v.82a2.2 2.2 0 0 0-.79-.14c-1.19 0-2.16.95-2.16 2.12v9.64l-1.61-1.08h-.01a2.29 2.29 0 0 0-2.89.26 2.2 2.2 0 0 0 0 3.14l4.51 4.41v3.44c0 .37.31.68.69.68h12.79c.19 0 .37-.08.5-.22.14-.14.2-.32.19-.51zM6.55 21.01v-.03a.7.7 0 0 0-.2-.44l-4.71-4.61a.86.86 0 0 1 0-1.24.89.89 0 0 1 .63-.26c.18 0 .36.06.51.16l2.69 1.8a.7.7 0 0 0 .39.12c.22 0 .43-.1.56-.3.07-.09.11-.19.12-.3l.01-.08V4.92c0-.43.35-.77.78-.77a.8.8 0 0 1 .56.23c.15.14.23.33.23.54v5.3c0 .37.31.67.69.67.38 0 .69-.3.69-.68V2.12c0-.43.35-.77.79-.77a.78.78 0 0 1 .78.77v6.2c0 .36.31.67.69.67.38 0 .69-.3.69-.68v-5.3c0-.42.35-.76.79-.76a.78.78 0 0 1 .78.77v8.38c0 .37.31.67.69.67.38 0 .69-.3.69-.67V6.1c0-.42.36-.77.79-.77.21 0 .41.08.55.23.15.14.23.34.23.54v5.96l.02.12.91 11.88H6.55z"/></svg>