<svg xmlns="http://www.w3.org/2000/svg" width="28" height="37" viewBox="0 0 28 37"><path class="instructions" d="M26.2 34.32l-2.75.02a.33.33 0 0 1-.25-.1.34.34 0 0 1-.1-.24l-.03-7.93c0-.2.15-.35.34-.35l2.74-.01a.8.8 0 0 0 0-1.58h-.01l-2.74.01c-1.02 0-1.85.8-1.92 1.8h-5.64c-.3 0-.59.05-.88.14l-5.19 1.64a2.62 2.62 0 0 0-1.82 2.3L3.6 27.78a2.46 2.46 0 0 0-2.27 4.37l8.91 4.6a2.33 2.33 0 0 0 1.71.16l8.49-2.68h1.09a1.92 1.92 0 0 0 1.92 1.7v-.01l2.76-.01a.8.8 0 1 0 0-1.59zm-6.13-1.64l-8.53 2.7a.74.74 0 0 1-.56-.04l-8.92-4.6a.87.87 0 0 1 .14-1.61.88.88 0 0 1 .67.05l6.5 3.35a2.64 2.64 0 0 0 1.99.17l4.32-1.37a.79.79 0 1 0-.48-1.5l-4.32 1.36c-.28.1-.57.05-.81-.08a1.05 1.05 0 0 1-.49-.59c-.17-.54.13-1.12.67-1.29l5.2-1.64c.13-.05.26-.07.4-.07h5.64l.02 5.13h-1.2l-.24.03zM12.46 0a.8.8 0 0 0-.8.8v1.42a.8.8 0 0 0 1.59 0V.8a.8.8 0 0 0-.8-.79zM4.1 8.05H2.67a.8.8 0 1 0 0 1.58h1.44a.8.8 0 1 0 0-1.58zm18.13 0H20.8a.8.8 0 0 0-.8.8c0 .43.36.78.8.78h1.44a.8.8 0 0 0 .8-.79.8.8 0 0 0-.8-.79zM7.9 3.78L6.88 2.76a.8.8 0 0 0-1.12 0c-.31.31-.31.81 0 1.12l1.02 1.01a.8.8 0 0 0 1.12 0 .79.79 0 0 0 0-1.11zm11.25-1.02a.8.8 0 0 0-1.12 0L17 3.78a.79.79 0 0 0 .56 1.35c.2 0 .4-.08.56-.24l1.02-1.01c.31-.3.31-.8 0-1.12zm.98 14.46a.8.8 0 0 0-.63-.33 8.05 8.05 0 0 0-6.25 2.76v-2.48a6.31 6.31 0 0 0 4.7-9.42.8.8 0 0 0-.7-.39c-.55 0-1.1.08-1.62.22a7.25 7.25 0 0 0-2.78-2.9.8.8 0 0 0-.8 0 7.24 7.24 0 0 0-2.78 2.9 6.34 6.34 0 0 0-1.62-.22.8.8 0 0 0-.69.4 6.31 6.31 0 0 0 4.7 9.41v2.48a8.12 8.12 0 0 0-6.25-2.76.8.8 0 0 0-.73 1.04 8.06 8.06 0 0 0 6.99 5.41V25a.8.8 0 0 0 1.59 0l-.01-1.65a8.06 8.06 0 0 0 6.99-5.4.79.79 0 0 0-.1-.72zM8.6 20.62a6.45 6.45 0 0 1-1.9-2.05 6.49 6.49 0 0 1 4.48 3.12 6.47 6.47 0 0 1-2.58-1.07zm2.58-5.15a4.73 4.73 0 0 1-3.06-6.5 4.7 4.7 0 0 1 3.42 1.99 6.32 6.32 0 0 0-.36 4.5zm-.43-7.3c.42-.74 1-1.38 1.7-1.87.7.49 1.29 1.13 1.7 1.88-.63.35-1.21.82-1.7 1.38a6.23 6.23 0 0 0-1.7-1.4zm2.18 7.45a4.73 4.73 0 0 1 3.86-6.65 4.73 4.73 0 0 1-3.86 6.65zm3.38 5c-.78.54-1.66.9-2.58 1.07a6.44 6.44 0 0 1 4.48-3.13c-.47.81-1.11 1.5-1.9 2.06z"/></svg>
