<svg xmlns="http://www.w3.org/2000/svg" width="28" height="28" viewBox="0 0 28 28"><path d="M7.77 5.87h-2.8c-.23 0-.43.2-.43.44v2.82c0 .24.2.44.44.44h2.8c.23 0 .43-.2.43-.44V6.3c0-.24-.2-.44-.44-.44zm-.43 2.82H5.4V6.75h1.93zm8.7-1.53h-5.7c-.25 0-.44.2-.44.44s.2.44.43.44h5.7c.25 0 .44-.2.44-.44s-.2-.44-.43-.44zm-8.27 4h-2.8c-.23 0-.43.19-.43.43v2.82c0 .24.2.44.44.44h2.8c.23 0 .43-.2.43-.44V11.6c0-.24-.2-.44-.44-.44zm-.43 2.81H5.4v-1.94h1.93zm8.7-1.53h-5.7c-.25 0-.44.2-.44.44 0 .25.2.44.43.44h5.7c.25 0 .44-.2.44-.44s-.2-.44-.43-.44zm-8.27 4h-2.8c-.23 0-.43.2-.43.44v2.81c0 .25.2.44.44.44h2.8c.23 0 .43-.2.43-.44v-2.81c0-.25-.2-.44-.44-.44zm-.43 2.81H5.4v-1.93h1.93zm8.7-1.52h-5.7c-.25 0-.44.2-.44.44s.2.44.43.44h5.7c.25 0 .44-.2.44-.44s-.2-.44-.43-.44zm11.5 1.85V7.48a2.78 2.78 0 0 0-2.77-2.78h-5.85V2.79A2.78 2.78 0 0 0 16.15 0H2.76h-.02A2.89 2.89 0 0 0 0 2.9v1.3c0 .24.2.44.44.44H2.2v11.18c0 .24.2.44.44.44s.43-.2.43-.44V4.64h10.63c.24 0 .43-.2.43-.44V2.9c0-1.11.9-2.02 2.01-2.02 1.05 0 1.9.86 1.9 1.9v14.45a.5.5 0 0 0 0 .08 6.09 6.09 0 0 0-2.02 5.58H4.98a1.9 1.9 0 0 1-1.9-1.9v-3.3c0-.24-.19-.43-.43-.43s-.44.2-.44.44v3.28a2.78 2.78 0 0 0 2.77 2.8h11.26a6.04 6.04 0 0 0 9.12 3.17c.2-.14.26-.41.12-.61a.43.43 0 0 0-.6-.12c-.86.59-1.86.9-2.9.9a5.18 5.18 0 0 1-5.16-5.2c0-2.86 2.31-5.2 5.16-5.2a5.18 5.18 0 0 1 4.1 8.34c-.14.2-.1.47.08.62.2.15.47.1.62-.09a6.05 6.05 0 0 0 .75-6zM13.26 2.91v.85H.87V2.9c0-1.08.84-1.97 1.9-2.03H14.1c-.5.53-.82 1.24-.82 2.03zm13.4 15.2a6 6 0 0 0-4.26-2.25V10.9c0-.24-.2-.44-.44-.44s-.43.2-.43.44v4.97c-.95.07-1.84.37-2.62.83V5.58h3.44c-.5.52-.82 1.23-.82 2.02v1.12c0 .24.2.44.43.44.25 0 .44-.2.44-.44V7.6c0-1.11.9-2.02 2-2.02h.36c1.04 0 1.9.85 1.9 1.9zm-4.7-.15a3.95 3.95 0 0 0-3.92 3.96 3.95 3.95 0 0 0 3.93 3.97 3.95 3.95 0 0 0 3.92-3.97 3.95 3.95 0 0 0-3.92-3.96zm0 7.05a3.07 3.07 0 0 1-3.05-3.09c0-1.7 1.37-3.08 3.06-3.08a3.07 3.07 0 0 1 3.05 3.08c0 1.7-1.37 3.09-3.05 3.09zm1.64-3.53h-1.2v-1.2c0-.24-.2-.44-.43-.44-.25 0-.44.2-.44.44v1.65c0 .24.2.44.44.44h1.63c.24 0 .43-.2.43-.44 0-.25-.2-.45-.43-.45z"/></svg>