<svg xmlns="http://www.w3.org/2000/svg" width="32" height="32" viewBox="0 0 32 32"><path d="M26.92 28.37l-.51-.48a.72.72 0 0 0-1 0 .67.67 0 0 0 0 .97l.5.48c.14.14.32.2.5.2a.68.68 0 0 0 .51-1.17zm-4.09-1.44l-.5-.49a.73.73 0 0 0-1.01 0 .67.67 0 0 0 0 .97l.51.5a.72.72 0 0 0 1 0 .67.67 0 0 0 0-.98zm-1 3.41a.72.72 0 0 0-1 0l-.5.49a.67.67 0 0 0 0 .97.72.72 0 0 0 1 0l.5-.49a.67.67 0 0 0 0-.97zm8.19-16.07l-.73-.7L16.98 1.65h-.01l-.73-.7A3.37 3.37 0 0 0 13.88 0c-.89 0-1.73.34-2.36.95l-9.54 9.22a3.15 3.15 0 0 0 0 4.58l13.45 13.01a.73.73 0 0 0 .5.2h1.57a.7.7 0 0 0 .5-.2l1.49-1.44c.13-.12.21-.3.21-.48v-1.62h4.5c.17 0 .34-.07.47-.2l5.35-5.17a3.15 3.15 0 0 0 0-4.58zm-27.04-.5a1.82 1.82 0 0 1 0-2.62l9.54-9.23c.36-.35.85-.55 1.36-.55.51 0 1 .2 1.36.55l.23.22L3.21 13.99zm26.04 4.1l-5.15 4.98h-4.88a.7.7 0 0 0-.71.69v2.01l-1.07 1.04h-.98L4.21 14.97 16.47 3.1l11.32 10.94-6.72 6.5a.68.68 0 0 0 .51 1.17c.18 0 .36-.07.5-.2l6.71-6.5.23.22c.75.73.75 1.9 0 2.63zm-6.79-4.17v-.02a2.39 2.39 0 0 0-.64-1.06c-.76-.73-1.92-.9-3.09-.53.38-1.13.21-2.26-.55-3-.3-.28-.67-.49-1.09-.6l-.03-.01a3.65 3.65 0 0 0-1.69 0c-.43.12-.79.33-1.09.62-.76.73-.93 1.86-.56 2.99-1.16-.37-2.33-.2-3.09.53-.3.3-.51.65-.63 1.06l-.01.02c-.06.27-.1.54-.1.8a2.6 2.6 0 0 0 .74 1.9c.51.48 1.19.72 1.93.72.37 0 .77-.06 1.16-.19-.37 1.13-.2 2.26.56 2.99.3.29.66.5 1.09.61.26.08.54.11.84.11h.03c.27 0 .54-.03.82-.1h.03c.42-.12.79-.33 1.09-.62.76-.73.93-1.86.55-2.99a4 4 0 0 0 1.17.19 2.7 2.7 0 0 0 1.92-.72c.3-.3.52-.65.64-1.06a3.2 3.2 0 0 0 0-1.64zm-7.28-3.73c.15-.14.33-.24.54-.3.15-.04.32-.06.5-.06.17 0 .35.03.53.07.21.06.38.16.53.3.6.58.46 1.72-.29 2.7a2.05 2.05 0 0 0-1.53 0c-.74-.98-.88-2.12-.28-2.7zm1.81 4.54c0 .2-.08.38-.22.52a.78.78 0 0 1-1.08 0 .73.73 0 0 1 0-1.04.77.77 0 0 1 .54-.22c.2 0 .39.08.54.22.14.14.22.32.22.52zm-2.65.74c-1.01.72-2.2.85-2.8.27A1.12 1.12 0 0 1 11 15a2.27 2.27 0 0 1 0-1c.06-.2.17-.37.31-.5.6-.59 1.79-.45 2.8.27a1.86 1.86 0 0 0 0 1.48zm2.94 3.8c-.15.13-.32.23-.53.3l-.53.06c-.18 0-.35-.02-.5-.07a1.3 1.3 0 0 1-.54-.3c-.6-.58-.46-1.73.28-2.7a2.14 2.14 0 0 0 1.53 0c.75.97.89 2.12.29 2.7zM21 15c-.06.2-.17.38-.31.52-.61.59-1.79.45-2.8-.27a1.86 1.86 0 0 0 0-1.48c1.01-.72 2.2-.86 2.8-.27.14.13.24.3.3.5a1.83 1.83 0 0 1 .01 1z"/></svg>