<svg xmlns="http://www.w3.org/2000/svg" width="42" height="28" viewBox="0 0 42 28"><path d="M37.91 19.68h-4.15a2.32 2.32 0 0 1-2.27-2.34c0-2.79-1.07-5.33-2.81-7.22l-.12-.13c-1.9-2-4.57-3.25-7.51-3.25h-.1a10.56 10.56 0 0 0-10.44 10.6 2.31 2.31 0 0 1-2.27 2.34H4.09A4.13 4.13 0 0 0 0 23.84C0 26.14 1.83 28 4.09 28h4.15c5.74 0 10.43-4.76 10.44-10.6a2.32 2.32 0 0 1 2.27-2.34h.1a2.32 2.32 0 0 1 2.27 2.34c.01 5.84 4.7 10.6 10.45 10.6h4.14A4.13 4.13 0 0 0 42 23.84c0-2.3-1.83-4.16-4.09-4.16zm0 6.57h-1.78l.21-1.53a.87.87 0 0 0-.74-1 .87.87 0 0 0-.97.75l-.24 1.78h-.62a8.78 8.78 0 0 1-8.61-7.43l1.68-.46c.45-.12.73-.6.6-1.07a.85.85 0 0 0-1.05-.62l-1.37.38a4.06 4.06 0 0 0-3.2-3.67l-.27-1.95a.85.85 0 0 0-.97-.75c-.47.07-.8.5-.73.99l.24 1.73a4.09 4.09 0 0 0-3.12 3.7l-1.54-.43a.86.86 0 0 0-1.05.62c-.12.47.15.95.61 1.07l1.85.5a8.8 8.8 0 0 1-8.6 7.39H4.09a2.4 2.4 0 0 1-2.37-2.41c0-1.33 1.06-2.4 2.37-2.4h4.15c.8 0 1.54-.25 2.16-.67l1.29 1.31a.85.85 0 0 0 1.21 0 .89.89 0 0 0 0-1.24l-1.3-1.32c.4-.63.63-1.38.63-2.18 0-2.04.7-3.92 1.84-5.42l1.12 1.14a.86.86 0 0 0 1.22 0 .88.88 0 0 0 0-1.24l-1.15-1.17a8.6 8.6 0 0 1 5.69-2.16h.1c2.18 0 4.18.82 5.71 2.18l-1.13 1.15a.88.88 0 0 0 .61 1.5c.22 0 .44-.09.61-.26l1.1-1.12a8.89 8.89 0 0 1 1.82 5.4c0 .89.28 1.7.75 2.38l-1.19 1.21a.88.88 0 0 0 .61 1.5c.22 0 .44-.09.6-.26l1.26-1.27c.58.34 1.25.53 1.96.53h4.15a2.4 2.4 0 0 1 2.37 2.4c0 1.34-1.06 2.42-2.37 2.42zm-34-2.99c0 .63.5 1.14 1.12 1.14.62 0 1.12-.51 1.12-1.14 0-.63-.5-1.14-1.12-1.14-.62 0-1.12.51-1.12 1.14zM21 0c-.48 0-.86.4-.86.88v1.25c0 .48.38.87.86.87s.86-.39.86-.87V.88A.86.86 0 0 0 21 0zm-3.76 3.35l-.87-.89a.85.85 0 0 0-1.22 0 .9.9 0 0 0 0 1.24l.87.89a.86.86 0 0 0 1.22 0 .88.88 0 0 0 0-1.24zm9.61-.89a.85.85 0 0 0-1.22 0l-.87.89a.88.88 0 0 0 .61 1.5c.22 0 .44-.1.61-.26l.87-.89a.9.9 0 0 0 0-1.24z"/></svg>