<svg width="400" height="400" xmlns="http://www.w3.org/2000/svg" xmlns:xlink="http://www.w3.org/1999/xlink"><path d="M188.454 5.440 C 117.947 37.499,59.518 80.096,8.452 136.671 C 0.963 144.968,0.854 145.149,1.247 148.630 C 1.466 150.574,2.228 157.361,2.941 163.711 C 10.755 233.385,35.074 306.197,72.015 370.527 C 77.866 380.715,75.872 379.595,95.093 383.490 C 163.404 397.331,237.317 397.328,305.682 383.482 C 325.414 379.485,323.199 380.752,329.430 369.900 C 368.353 302.113,392.523 226.191,398.811 151.965 L 399.387 145.168 395.661 140.831 C 347.717 85.030,278.958 34.540,210.193 4.641 C 199.492 -0.012,200.528 -0.051,188.454 5.440 M223.890 27.131 C 282.306 56.182,325.625 88.271,372.636 137.320 L 384.493 149.691 383.995 155.843 C 378.932 218.393,353.858 297.421,320.408 356.256 C 313.689 368.074,315.749 366.644,301.383 369.466 C 234.385 382.629,168.615 382.604,99.969 369.391 L 86.535 366.806 82.856 360.516 C 50.360 304.967,26.485 233.117,18.069 165.543 C 15.814 147.439,14.005 151.060,36.701 128.248 C 81.605 83.112,129.330 49.171,184.742 22.961 C 201.575 14.999,198.925 14.716,223.890 27.131 M192.165 87.010 C 192.165 89.698,192.344 89.897,194.761 89.897 L 197.356 89.897 196.907 99.588 C 196.345 111.705,193.007 123.121,189.897 123.563 C 188.108 123.817,188.041 124.135,188.041 132.428 L 188.041 141.031 192.577 141.031 L 197.113 141.031 197.113 135.645 L 197.113 130.260 207.629 130.491 L 218.144 130.722 217.876 135.876 L 217.608 141.031 222.206 141.031 L 226.804 141.031 226.804 132.838 L 226.804 124.646 224.536 124.385 L 222.268 124.124 222.016 111.340 C 221.656 93.050,222.126 89.897,225.214 89.897 C 227.424 89.897,227.629 89.652,227.629 87.010 L 227.629 84.124 209.897 84.124 L 192.165 84.124 192.165 87.010 M140.838 92.309 L 138.144 94.720 138.388 102.957 C 138.617 110.708,138.522 111.271,136.772 112.497 C 134.477 114.104,134.090 113.710,132.446 108.098 C 130.753 102.317,130.788 101.726,132.862 101.184 C 134.442 100.771,134.601 96.546,133.097 94.911 C 132.365 94.116,116.289 99.225,116.289 100.253 C 116.289 103.319,117.839 105.357,119.876 104.968 C 122.313 104.502,126.393 115.103,124.302 116.468 C 121.894 118.040,119.962 116.628,117.113 111.217 C 112.625 102.690,109.140 100.198,103.989 101.833 C 101.234 102.707,101.481 108.866,104.271 108.866 C 106.727 108.866,108.712 110.757,110.297 114.606 C 111.836 118.347,114.511 121.237,116.432 121.237 C 117.261 121.237,117.938 121.608,117.938 122.062 C 117.938 122.515,117.612 122.887,117.213 122.887 C 115.495 122.887,114.418 128.007,114.945 133.676 C 115.456 139.175,115.380 139.538,113.304 141.462 L 111.126 143.481 113.302 146.334 C 115.734 149.523,118.604 149.353,121.776 145.833 C 123.327 144.111,123.685 135.602,122.486 128.947 C 121.967 126.069,123.602 123.711,126.117 123.711 C 129.528 123.711,131.852 137.650,128.454 137.719 C 127.591 137.737,127.703 141.194,128.612 142.632 C 130.139 145.045,146.090 139.722,145.444 137.015 C 144.686 133.837,144.453 133.608,141.979 133.608 C 139.905 133.608,139.614 133.187,138.314 128.307 C 137.537 125.392,136.683 122.438,136.417 121.744 C 135.752 120.012,139.765 119.019,141.525 120.480 C 142.239 121.073,144.266 124.426,146.029 127.933 C 149.669 135.173,151.613 136.907,156.086 136.907 C 159.415 136.907,159.605 136.676,160.282 131.800 C 160.687 128.886,160.595 128.745,158.120 128.501 C 155.889 128.282,155.120 127.511,152.523 122.887 C 150.519 119.318,148.534 116.969,146.587 115.861 C 143.862 114.310,143.745 114.084,144.892 112.562 C 145.816 111.334,146.031 109.404,145.753 104.803 C 145.411 99.123,145.531 98.542,147.404 96.806 C 149.403 94.953,149.408 94.907,147.936 92.415 C 146.074 89.262,144.270 89.235,140.838 92.309 M212.595 107.010 L 212.371 123.299 209.945 123.575 C 208.611 123.727,205.962 123.618,204.059 123.332 L 200.599 122.813 202.165 118.690 C 203.759 114.495,205.321 102.893,205.347 95.052 L 205.361 90.722 209.090 90.722 L 212.818 90.722 212.595 107.010 M270.765 93.162 C 269.640 93.642,268.640 95.126,268.130 97.071 C 265.902 105.566,265.762 105.065,270.627 105.977 C 273.572 106.530,273.627 106.490,274.744 102.959 C 277.141 95.383,287.495 101.627,287.363 110.569 C 287.279 116.231,287.026 116.290,275.758 113.311 C 274.297 112.925,273.822 113.354,273.019 115.787 C 271.748 119.638,272.059 119.989,277.804 121.209 C 284.907 122.716,285.073 122.893,283.424 127.211 C 279.919 136.387,264.903 139.706,266.870 130.870 C 267.873 126.363,267.724 125.943,264.848 125.177 C 260.816 124.104,260.168 124.658,258.994 130.193 C 257.632 136.608,257.996 137.369,263.701 140.036 C 270.096 143.025,279.058 143.164,284.372 140.355 C 295.822 134.304,300.224 107.544,291.263 98.471 C 287.004 94.159,275.444 91.165,270.765 93.162 M169.117 123.666 C 166.805 125.979,166.860 130.546,169.228 132.751 C 174.692 137.842,183.617 130.610,179.200 124.670 C 177.003 121.715,171.606 121.178,169.117 123.666 M237.808 125.003 C 236.101 126.710,235.790 127.627,236.199 129.745 C 237.705 137.544,249.072 136.978,249.072 129.104 C 249.072 123.235,242.111 120.700,237.808 125.003 M44.536 159.013 C 45.216 159.435,80.566 174.893,123.091 193.364 L 200.409 226.947 278.735 192.898 C 321.814 174.171,356.978 158.765,356.876 158.663 C 356.774 158.561,351.413 159.370,344.962 160.460 C 313.629 165.757,273.714 170.885,244.536 173.364 C 237.248 173.983,219.117 174.415,200.412 174.415 C 167.503 174.415,158.109 173.893,125.361 170.247 C 102.042 167.650,57.206 161.172,45.495 158.708 C 43.939 158.381,43.659 158.470,44.536 159.013 M144.467 295.753 C 113.948 333.229,89.092 364.001,89.231 364.133 C 89.371 364.266,114.165 347.544,144.330 326.974 C 174.495 306.403,199.654 289.552,200.239 289.528 C 201.109 289.493,226.747 306.750,308.247 362.229 C 310.175 363.542,311.753 364.435,311.753 364.214 C 311.753 363.599,201.269 228.071,200.569 227.828 C 200.232 227.710,174.986 258.277,144.467 295.753 " stroke="none" fill="#e6342a" fill-rule="evenodd"></path></svg>