<svg xmlns="http://www.w3.org/2000/svg" width="50" height="47" viewBox="0 0 50 47"><path fill="#5f8647" d="M46.43 16.9h-.84c-1.2-3.14-3.26-6-6.01-8.3v-.02c-.42-1.43-.1-2.96.9-4.56a2.63 2.63 0 1 0-2.55-4C34.1.5 31.8 2.23 30.48 3.85c-2.29-.63-4.66-.95-7.07-.95A25 25 0 0 0 6.9 8.87C2.46 12.77 0 17.95 0 23.47a18 18 0 0 0 .55 4.4c.35 1.4.86 2.79 1.53 4.1 1.1 2.4 2.44 4.39 3.94 5.93a9.48 9.48 0 0 1 2.53 6.05v.65l.01.15a2.5 2.5 0 0 0 2.5 2.24h7.68a2.5 2.5 0 0 0 2.5-2.5V44c1.2.09 2.4.1 3.61.05v.47a2.5 2.5 0 0 0 2.5 2.49h7.69a2.5 2.5 0 0 0 2.5-2.5v-1.86c0-.45.18-2.54 2.17-4.36l.29-.24.02-.02.07-.07a20.34 20.34 0 0 0 5.63-8.18h.72c1.96 0 3.56-1.6 3.56-3.55V20.5c-.01-2-1.61-3.6-3.57-3.6zm1.08 9.28c0 .6-.48 1.08-1.08 1.08h-1.61c-.55 0-1.02.35-1.19.88a17.76 17.76 0 0 1-5.24 7.97l-.02.02-.01.01-.28.25-.03.02a8.81 8.81 0 0 0-3 6.15v1.93l-.02.02h-7.7a.02.02 0 0 1-.01-.02v-1.8c0-.35-.15-.68-.42-.92-.22-.2-.52-.32-.82-.32l-.14.01a23.4 23.4 0 0 1-5.78-.08 1.24 1.24 0 0 0-1.4 1.23v1.88l-.03.02h-7.69a.02.02 0 0 1-.02-.02v-.58-.05c-.06-1.38-.5-4.88-3.24-7.69A19.07 19.07 0 0 1 4.3 30.9c0-.02 0-.03-.02-.04a16.43 16.43 0 0 1-1.35-3.59l-.01-.03v-.02c-.3-1.22-.44-2.48-.44-3.73 0-9.98 9.39-18.1 20.93-18.1 2.46 0 4.87.36 7.16 1.08.52.17 1.1-.03 1.4-.48.92-1.36 2.75-3.06 6.26-3.5.08-.01.13.04.15.08.04.07.01.14-.01.16-1.37 2.18-1.78 4.44-1.18 6.54l.01.04c.01.36.18.7.47.93a17.95 17.95 0 0 1 5.88 8.3c.17.5.64.86 1.18.86h1.7c.6 0 1.08.48 1.08 1.08v5.7z"/></svg>