<svg xmlns="http://www.w3.org/2000/svg" width="12" height="17" viewBox="0 0 12 17"><path fill="#ffcd36" d="M6 2.58a3.63 3.63 0 0 0-3.54 3.7c0 2.05 1.59 3.7 3.54 3.7a3.63 3.63 0 0 0 3.54-3.7c0-2.04-1.59-3.7-3.54-3.7zm0 6.41a2.65 2.65 0 0 1-2.59-2.7c0-1.5 1.16-2.71 2.59-2.71a2.65 2.65 0 0 1 2.59 2.7C8.59 7.78 7.43 9 6 9zM6 0C2.69 0 0 2.82 0 6.28c0 2 1.6 4.98 2.55 6.58a30.37 30.37 0 0 0 1.9 2.81C5.41 16.9 5.75 17 6 17s.57-.1 1.53-1.33c.6-.77 1.27-1.77 1.9-2.81.96-1.6 2.57-4.59 2.57-6.58C12 2.82 9.31 0 6 0zm2.77 12.08a19.62 19.62 0 0 1-2.78 3.87 19.28 19.28 0 0 1-2.77-3.86C1.78 9.63.95 7.5.95 6.29A5.18 5.18 0 0 1 6 .98a5.18 5.18 0 0 1 5.05 5.3c0 1.21-.83 3.33-2.28 5.79z"/></svg>