<?xml version="1.0" encoding="UTF-8"?>
<!DOCTYPE svg PUBLIC "-//W3C//DTD SVG 1.1//EN" "http://www.w3.org/Graphics/SVG/1.1/DTD/svg11.dtd">
<!-- Creator: CorelDRAW 2020 (64-Bit) -->
<svg xmlns="http://www.w3.org/2000/svg" xml:space="preserve" width="256px" height="257px" version="1.1" style="shape-rendering:geometricPrecision; text-rendering:geometricPrecision; image-rendering:optimizeQuality; fill-rule:evenodd; clip-rule:evenodd"
viewBox="0 0 173.4 174.32"
 xmlns:xlink="http://www.w3.org/1999/xlink"
 xmlns:xodm="http://www.corel.com/coreldraw/odm/2003">
 <defs>
  <style type="text/css">
   <![CDATA[
    .fil97 {fill:#A3322C}
    .fil96 {fill:#A4322C}
    .fil95 {fill:#A5322C}
    .fil94 {fill:#A5322D}
    .fil93 {fill:#A6322D}
    .fil92 {fill:#A6332D}
    .fil91 {fill:#A7332D}
    .fil90 {fill:#A8332D}
    .fil89 {fill:#A8332E}
    .fil88 {fill:#A9332E}
    .fil87 {fill:#AA332E}
    .fil86 {fill:#AB332E}
    .fil85 {fill:#AC332E}
    .fil84 {fill:#AC342E}
    .fil83 {fill:#AC342F}
    .fil82 {fill:#AD342F}
    .fil81 {fill:#AE342F}
    .fil80 {fill:#AF342F}
    .fil79 {fill:#B03430}
    .fil78 {fill:#B13430}
    .fil77 {fill:#B23430}
    .fil76 {fill:#B23530}
    .fil75 {fill:#B33530}
    .fil74 {fill:#B33531}
    .fil73 {fill:#B43531}
    .fil72 {fill:#B53531}
    .fil71 {fill:#B63531}
    .fil70 {fill:#B73531}
    .fil69 {fill:#B73532}
    .fil68 {fill:#B83632}
    .fil67 {fill:#B93632}
    .fil66 {fill:#BA3632}
    .fil65 {fill:#BB3633}
    .fil64 {fill:#BC3633}
    .fil63 {fill:#BD3633}
    .fil62 {fill:#BE3733}
    .fil61 {fill:#BE3734}
    .fil60 {fill:#BF3734}
    .fil59 {fill:#C03734}
    .fil58 {fill:#C13734}
    .fil57 {fill:#C23735}
    .fil56 {fill:#C33735}
    .fil55 {fill:#C33835}
    .fil54 {fill:#C43835}
    .fil53 {fill:#C53835}
    .fil52 {fill:#C63836}
    .fil51 {fill:#C73836}
    .fil50 {fill:#C83836}
    .fil49 {fill:#C93836}
    .fil48 {fill:#C93937}
    .fil47 {fill:#CA3937}
    .fil46 {fill:#CB3937}
    .fil45 {fill:#CC3937}
    .fil44 {fill:#CD3938}
    .fil43 {fill:#CE3938}
    .fil42 {fill:#CF3938}
    .fil41 {fill:#CF3A38}
    .fil40 {fill:#D03A38}
    .fil39 {fill:#D13A39}
    .fil38 {fill:#D23A39}
    .fil37 {fill:#D33A39}
    .fil36 {fill:#D43A39}
    .fil35 {fill:#D43A3A}
    .fil34 {fill:#D53B3A}
    .fil33 {fill:#D63B3A}
    .fil32 {fill:#D73B3A}
    .fil31 {fill:#D83B3B}
    .fil30 {fill:#D93B3B}
    .fil29 {fill:#DA3B3B}
    .fil28 {fill:#DB3C3B}
    .fil27 {fill:#DB3C3C}
    .fil26 {fill:#DC3C3C}
    .fil25 {fill:#DD3C3C}
    .fil24 {fill:#DE3C3C}
    .fil23 {fill:#DF3C3C}
    .fil22 {fill:#DF3C3D}
    .fil21 {fill:#E03C3D}
    .fil20 {fill:#E03D3D}
    .fil19 {fill:#E13D3D}
    .fil18 {fill:#E23D3D}
    .fil17 {fill:#E33D3E}
    .fil16 {fill:#E43D3E}
    .fil15 {fill:#E53D3E}
    .fil14 {fill:#E63D3E}
    .fil13 {fill:#E63D3F}
    .fil12 {fill:#E63E3F}
    .fil11 {fill:#E73E3F}
    .fil10 {fill:#E83E3F}
    .fil9 {fill:#E93E3F}
    .fil8 {fill:#EA3E3F}
    .fil7 {fill:#EA3E40}
    .fil6 {fill:#EB3E40}
    .fil5 {fill:#EC3E40}
    .fil4 {fill:#EC3F40}
    .fil3 {fill:#ED3F40}
    .fil2 {fill:#ED3F41}
    .fil1 {fill:#EE3F41}
    .fil0 {fill:#EF3F41}
    .fil98 {fill:#F9D3D3;fill-rule:nonzero}
   ]]>
  </style>
    <clipPath id="id0">
     <path d="M89.02 1.07l4.11 4.82c1.05,1.24 2.89,1.43 4.18,0.44l5.02 -3.86c0.73,-0.56 1.59,-0.76 2.49,-0.57 0.91,0.2 1.61,0.72 2.05,1.54l3.01 5.56c0.78,1.43 2.54,2.01 4,1.3l5.71 -2.73c0.84,-0.4 1.72,-0.41 2.56,-0.03 0.85,0.37 1.42,1.03 1.69,1.92l1.79 6.07c0.46,1.56 2.06,2.49 3.64,2.1l6.15 -1.48c0.9,-0.22 1.76,-0.05 2.51,0.5 0.75,0.54 1.18,1.31 1.25,2.23l0.49 6.31c0.12,1.62 1.5,2.86 3.12,2.81l6.33 -0.17c0.93,-0.03 1.73,0.32 2.35,1.01 0.62,0.69 0.88,1.52 0.76,2.44l-0.84 6.28c-0.21,1.61 0.88,3.1 2.48,3.4l6.22 1.14c0.91,0.17 1.63,0.68 2.09,1.48 0.46,0.8 0.54,1.67 0.23,2.55l-2.12 5.96c-0.54,1.53 0.21,3.22 1.71,3.84l5.86 2.42c0.85,0.35 1.45,1 1.73,1.88 0.29,0.88 0.19,1.75 -0.3,2.53l-3.31 5.4c-0.86,1.38 -0.47,3.19 0.87,4.11l5.22 3.58c0.77,0.52 1.22,1.28 1.31,2.2 0.1,0.92 -0.18,1.75 -0.82,2.42l-4.37 4.59c-1.12,1.18 -1.12,3.02 0,4.2l4.37 4.59c0.64,0.67 0.92,1.5 0.82,2.42 -0.09,0.92 -0.54,1.67 -1.31,2.2l-5.22 3.58c-1.34,0.92 -1.73,2.72 -0.87,4.11l3.31 5.39c0.49,0.79 0.59,1.66 0.3,2.54 -0.28,0.88 -0.88,1.53 -1.73,1.88l-5.86 2.41c-1.5,0.63 -2.25,2.31 -1.71,3.85l2.12 5.96c0.31,0.87 0.23,1.75 -0.23,2.55 -0.46,0.8 -1.18,1.31 -2.09,1.47l-6.22 1.15c-1.6,0.29 -2.69,1.79 -2.48,3.4l0.84 6.28c0.12,0.91 -0.14,1.75 -0.76,2.44 -0.62,0.69 -1.42,1.03 -2.35,1.01l-6.33 -0.18c-1.62,-0.04 -3,1.2 -3.12,2.82l-0.49 6.31c-0.07,0.92 -0.5,1.69 -1.25,2.23 -0.75,0.55 -1.61,0.72 -2.51,0.5l-6.15 -1.49c-1.58,-0.38 -3.18,0.55 -3.64,2.11l-1.79 6.07c-0.27,0.89 -0.84,1.55 -1.69,1.92 -0.84,0.38 -1.72,0.37 -2.56,-0.03l-5.71 -2.74c-1.46,-0.7 -3.22,-0.13 -4,1.3l-3.01 5.57c-0.44,0.82 -1.14,1.34 -2.05,1.53 -0.9,0.2 -1.76,0 -2.49,-0.56l-5.02 -3.86c-1.29,-1 -3.13,-0.8 -4.18,0.44l-4.11 4.82c-0.6,0.7 -1.39,1.07 -2.32,1.07 -0.93,0 -1.72,-0.37 -2.32,-1.07l-4.11 -4.82c-1.05,-1.24 -2.89,-1.44 -4.18,-0.44l-5.02 3.86c-0.73,0.56 -1.59,0.76 -2.49,0.56 -0.91,-0.19 -1.61,-0.71 -2.05,-1.53l-3.01 -5.57c-0.78,-1.43 -2.53,-2 -4,-1.3l-5.71 2.74c-0.84,0.4 -1.72,0.41 -2.56,0.03 -0.85,-0.37 -1.42,-1.03 -1.69,-1.92l-1.79 -6.07c-0.46,-1.56 -2.06,-2.49 -3.64,-2.11l-6.15 1.49c-0.9,0.22 -1.76,0.05 -2.51,-0.5 -0.75,-0.54 -1.18,-1.31 -1.25,-2.23l-0.49 -6.31c-0.12,-1.62 -1.5,-2.86 -3.12,-2.82l-6.33 0.18c-0.93,0.02 -1.73,-0.32 -2.35,-1.01 -0.62,-0.69 -0.88,-1.53 -0.76,-2.44l0.84 -6.28c0.21,-1.61 -0.88,-3.11 -2.48,-3.4l-6.22 -1.15c-0.91,-0.16 -1.63,-0.67 -2.09,-1.47 -0.46,-0.8 -0.54,-1.68 -0.23,-2.55l2.12 -5.96c0.54,-1.54 -0.21,-3.22 -1.71,-3.85l-5.86 -2.41c-0.85,-0.35 -1.45,-1 -1.73,-1.88 -0.29,-0.88 -0.19,-1.75 0.3,-2.54l3.31 -5.39c0.86,-1.39 0.47,-3.19 -0.87,-4.11l-5.22 -3.58c-0.77,-0.53 -1.21,-1.28 -1.31,-2.2 -0.1,-0.92 0.18,-1.75 0.82,-2.42l4.37 -4.59c1.12,-1.18 1.12,-3.02 0,-4.2l-4.37 -4.59c-0.64,-0.67 -0.92,-1.5 -0.82,-2.42 0.1,-0.92 0.54,-1.68 1.31,-2.2l5.22 -3.58c1.34,-0.92 1.73,-2.72 0.87,-4.11l-3.31 -5.4c-0.49,-0.78 -0.59,-1.65 -0.3,-2.53 0.28,-0.88 0.88,-1.53 1.73,-1.88l5.86 -2.42c1.5,-0.62 2.25,-2.31 1.71,-3.84l-2.12 -5.96c-0.31,-0.88 -0.23,-1.75 0.23,-2.55 0.46,-0.8 1.18,-1.31 2.09,-1.48l6.22 -1.14c1.6,-0.3 2.69,-1.79 2.48,-3.4l-0.84 -6.28c-0.12,-0.92 0.14,-1.75 0.76,-2.44 0.62,-0.69 1.42,-1.04 2.35,-1.01l6.33 0.17c1.62,0.05 3,-1.19 3.12,-2.81l0.49 -6.31c0.07,-0.92 0.5,-1.69 1.25,-2.23 0.75,-0.55 1.61,-0.72 2.51,-0.5l6.15 1.48c1.58,0.39 3.18,-0.54 3.64,-2.1l1.79 -6.07c0.27,-0.89 0.84,-1.55 1.69,-1.92 0.84,-0.38 1.72,-0.37 2.56,0.03l5.71 2.73c1.47,0.71 3.22,0.13 4,-1.3l3.01 -5.56c0.44,-0.82 1.14,-1.34 2.05,-1.54 0.9,-0.19 1.76,0.01 2.49,0.57l5.02 3.86c1.29,0.99 3.13,0.8 4.18,-0.44l4.11 -4.82c0.6,-0.7 1.39,-1.07 2.32,-1.07 0.93,0 1.72,0.37 2.32,1.07z"/>
    </clipPath>
 </defs>
 <g id="Layer_x0020_1">
  <metadata id="CorelCorpID_0Corel-Layer"/>
  <g>
   <g style="clip-path:url(#id0)">
    <polygon class="fil0" points="-36.35,83.48 -35.43,82.62 83.62,209.33 82.7,210.2 "/>
    <polygon id="1" class="fil0" points="-35.67,82.85 -34.93,82.15 84.11,208.87 83.37,209.56 "/>
    <polygon id="2" class="fil0" points="-35.18,82.38 -34.44,81.69 84.61,208.4 83.87,209.1 "/>
    <polygon id="3" class="fil0" points="-34.68,81.92 -33.94,81.22 85.1,207.94 84.36,208.63 "/>
    <polygon id="4" class="fil0" points="-34.19,81.45 -33.45,80.76 85.6,207.47 84.86,208.17 "/>
    <polygon id="5" class="fil0" points="-33.69,80.99 -32.95,80.29 86.09,207.01 85.35,207.7 "/>
    <polygon id="6" class="fil0" points="-33.2,80.52 -32.46,79.83 86.59,206.54 85.85,207.24 "/>
    <polygon id="7" class="fil0" points="-32.7,80.06 -31.96,79.36 87.08,206.08 86.34,206.77 "/>
    <polygon id="8" class="fil0" points="-32.21,79.59 -31.47,78.9 87.58,205.61 86.84,206.31 "/>
    <polygon id="9" class="fil0" points="-31.71,79.13 -30.97,78.43 88.07,205.15 87.33,205.84 "/>
    <polygon id="10" class="fil0" points="-31.22,78.66 -30.48,77.97 88.57,204.68 87.83,205.38 "/>
    <polygon id="11" class="fil0" points="-30.72,78.2 -29.98,77.5 89.06,204.22 88.32,204.91 "/>
    <polygon id="12" class="fil0" points="-30.23,77.73 -29.49,77.04 89.56,203.75 88.82,204.45 "/>
    <polygon id="13" class="fil0" points="-29.74,77.27 -28.99,76.57 90.05,203.29 89.31,203.98 "/>
    <polygon id="14" class="fil0" points="-29.24,76.8 -28.5,76.11 90.55,202.82 89.81,203.52 "/>
    <polygon id="15" class="fil1" points="-28.75,76.34 -28,75.64 91.04,202.36 90.3,203.05 "/>
    <polygon id="16" class="fil1" points="-28.25,75.87 -27.51,75.18 91.54,201.89 90.8,202.59 "/>
    <polygon id="17" class="fil1" points="-27.76,75.41 -27.01,74.71 92.03,201.43 91.29,202.12 "/>
    <polygon id="18" class="fil1" points="-27.26,74.94 -26.52,74.25 92.53,200.96 91.79,201.66 "/>
    <polygon id="19" class="fil1" points="-26.77,74.48 -26.02,73.78 93.02,200.5 92.28,201.19 "/>
    <polygon id="20" class="fil1" points="-26.27,74.01 -25.53,73.32 93.52,200.03 92.78,200.73 "/>
    <polygon id="21" class="fil1" points="-25.78,73.55 -25.03,72.85 94.01,199.57 93.27,200.27 "/>
    <polygon id="22" class="fil1" points="-25.28,73.08 -24.54,72.39 94.51,199.1 93.76,199.8 "/>
    <polygon id="23" class="fil1" points="-24.79,72.62 -24.04,71.92 95,198.64 94.26,199.34 "/>
    <polygon id="24" class="fil1" points="-24.29,72.15 -23.55,71.46 95.5,198.17 94.75,198.87 "/>
    <polygon id="25" class="fil2" points="-23.8,71.69 -23.05,70.99 95.99,197.71 95.25,198.41 "/>
    <polygon id="26" class="fil2" points="-23.3,71.22 -22.56,70.53 96.49,197.24 95.74,197.94 "/>
    <polygon id="27" class="fil2" points="-22.81,70.76 -22.06,70.06 96.98,196.78 96.24,197.48 "/>
    <polygon id="28" class="fil3" points="-22.31,70.29 -21.57,69.6 97.48,196.31 96.73,197.01 "/>
    <polygon id="29" class="fil3" points="-21.82,69.83 -21.07,69.13 97.97,195.85 97.23,196.55 "/>
    <polygon id="30" class="fil3" points="-21.32,69.36 -20.58,68.67 98.47,195.38 97.72,196.08 "/>
    <polygon id="31" class="fil3" points="-20.83,68.9 -20.08,68.2 98.96,194.92 98.22,195.62 "/>
    <polygon id="32" class="fil4" points="-20.33,68.43 -19.59,67.74 99.46,194.45 98.71,195.15 "/>
    <polygon id="33" class="fil4" points="-19.84,67.97 -19.09,67.27 99.95,193.99 99.21,194.69 "/>
    <polygon id="34" class="fil4" points="-19.34,67.5 -18.6,66.81 100.45,193.52 99.7,194.22 "/>
    <polygon id="35" class="fil5" points="-18.85,67.04 -18.11,66.34 100.94,193.06 100.2,193.76 "/>
    <polygon id="36" class="fil5" points="-18.35,66.58 -17.61,65.88 101.44,192.59 100.69,193.29 "/>
    <polygon id="37" class="fil5" points="-17.86,66.11 -17.12,65.41 101.93,192.13 101.19,192.83 "/>
    <polygon id="38" class="fil6" points="-17.36,65.65 -16.62,64.95 102.43,191.66 101.68,192.36 "/>
    <polygon id="39" class="fil6" points="-16.87,65.18 -16.13,64.48 102.92,191.2 102.18,191.9 "/>
    <polygon id="40" class="fil6" points="-16.37,64.72 -15.63,64.02 103.42,190.73 102.67,191.43 "/>
    <polygon id="41" class="fil6" points="-15.88,64.25 -15.14,63.55 103.91,190.27 103.17,190.97 "/>
    <polygon id="42" class="fil6" points="-15.38,63.79 -14.64,63.09 104.41,189.8 103.66,190.5 "/>
    <polygon id="43" class="fil7" points="-14.89,63.32 -14.15,62.62 104.9,189.34 104.16,190.04 "/>
    <polygon id="44" class="fil7" points="-14.39,62.86 -13.65,62.16 105.39,188.87 104.65,189.57 "/>
    <polygon id="45" class="fil7" points="-13.9,62.39 -13.16,61.69 105.89,188.41 105.15,189.11 "/>
    <polygon id="46" class="fil7" points="-13.4,61.93 -12.66,61.23 106.38,187.94 105.64,188.64 "/>
    <polygon id="47" class="fil8" points="-12.91,61.46 -12.17,60.76 106.88,187.48 106.14,188.18 "/>
    <polygon id="48" class="fil9" points="-12.41,61 -11.67,60.3 107.37,187.01 106.63,187.71 "/>
    <polygon id="49" class="fil9" points="-11.92,60.53 -11.18,59.83 107.87,186.55 107.13,187.25 "/>
    <polygon id="50" class="fil9" points="-11.42,60.07 -10.68,59.37 108.36,186.08 107.62,186.78 "/>
    <polygon id="51" class="fil9" points="-10.93,59.6 -10.19,58.9 108.86,185.62 108.12,186.32 "/>
    <polygon id="52" class="fil10" points="-10.43,59.14 -9.69,58.44 109.35,185.15 108.61,185.85 "/>
    <polygon id="53" class="fil10" points="-9.94,58.67 -9.2,57.97 109.85,184.69 109.11,185.39 "/>
    <polygon id="54" class="fil10" points="-9.44,58.21 -8.7,57.51 110.34,184.22 109.6,184.92 "/>
    <polygon id="55" class="fil10" points="-8.95,57.74 -8.21,57.04 110.84,183.76 110.1,184.46 "/>
    <polygon id="56" class="fil11" points="-8.45,57.28 -7.71,56.58 111.33,183.29 110.59,183.99 "/>
    <polygon id="57" class="fil11" points="-7.96,56.81 -7.22,56.11 111.83,182.83 111.09,183.53 "/>
    <polygon id="58" class="fil11" points="-7.47,56.35 -6.72,55.65 112.32,182.37 111.58,183.06 "/>
    <polygon id="59" class="fil12" points="-6.97,55.88 -6.23,55.18 112.82,181.9 112.08,182.6 "/>
    <polygon id="60" class="fil13" points="-6.48,55.42 -5.73,54.72 113.31,181.44 112.57,182.13 "/>
    <polygon id="61" class="fil14" points="-5.98,54.95 -5.24,54.25 113.81,180.97 113.07,181.67 "/>
    <polygon id="62" class="fil14" points="-5.49,54.49 -4.74,53.79 114.3,180.51 113.56,181.2 "/>
    <polygon id="63" class="fil15" points="-4.99,54.02 -4.25,53.32 114.8,180.04 114.06,180.74 "/>
    <polygon id="64" class="fil15" points="-4.5,53.56 -3.75,52.86 115.29,179.58 114.55,180.27 "/>
    <polygon id="65" class="fil15" points="-4,53.09 -3.26,52.39 115.79,179.11 115.05,179.81 "/>
    <polygon id="66" class="fil16" points="-3.51,52.63 -2.76,51.93 116.28,178.65 115.54,179.34 "/>
    <polygon id="67" class="fil16" points="-3.01,52.16 -2.27,51.46 116.78,178.18 116.04,178.88 "/>
    <polygon id="68" class="fil16" points="-2.52,51.7 -1.77,51 117.27,177.72 116.53,178.41 "/>
    <polygon id="69" class="fil17" points="-2.02,51.23 -1.28,50.53 117.77,177.25 117.02,177.95 "/>
    <polygon id="70" class="fil17" points="-1.53,50.77 -0.78,50.07 118.26,176.79 117.52,177.48 "/>
    <polygon id="71" class="fil17" points="-1.03,50.3 -0.29,49.61 118.76,176.32 118.01,177.02 "/>
    <polygon id="72" class="fil18" points="-0.54,49.84 0.21,49.14 119.25,175.86 118.51,176.55 "/>
    <polygon id="73" class="fil18" points="-0.04,49.37 0.7,48.68 119.75,175.39 119,176.09 "/>
    <polygon id="74" class="fil18" points="0.45,48.91 1.2,48.21 120.24,174.93 119.5,175.62 "/>
    <polygon id="75" class="fil19" points="0.95,48.44 1.69,47.75 120.74,174.46 119.99,175.16 "/>
    <polygon id="76" class="fil19" points="1.44,47.98 2.19,47.28 121.23,174 120.49,174.69 "/>
    <polygon id="77" class="fil20" points="1.94,47.51 2.68,46.82 121.73,173.53 120.98,174.23 "/>
    <polygon id="78" class="fil21" points="2.43,47.05 3.18,46.35 122.22,173.07 121.48,173.76 "/>
    <polygon id="79" class="fil21" points="2.93,46.58 3.67,45.89 122.72,172.6 121.97,173.3 "/>
    <polygon id="80" class="fil22" points="3.42,46.12 4.16,45.42 123.21,172.14 122.47,172.83 "/>
    <polygon id="81" class="fil22" points="3.92,45.65 4.66,44.96 123.71,171.67 122.96,172.37 "/>
    <polygon id="82" class="fil23" points="4.41,45.19 5.15,44.49 124.2,171.21 123.46,171.9 "/>
    <polygon id="83" class="fil24" points="4.91,44.72 5.65,44.03 124.7,170.74 123.95,171.44 "/>
    <polygon id="84" class="fil24" points="5.4,44.26 6.14,43.56 125.19,170.28 124.45,170.97 "/>
    <polygon id="85" class="fil25" points="5.9,43.79 6.64,43.1 125.69,169.81 124.94,170.51 "/>
    <polygon id="86" class="fil25" points="6.39,43.33 7.13,42.63 126.18,169.35 125.44,170.04 "/>
    <polygon id="87" class="fil25" points="6.89,42.86 7.63,42.17 126.68,168.88 125.93,169.58 "/>
    <polygon id="88" class="fil26" points="7.38,42.4 8.12,41.7 127.17,168.42 126.43,169.11 "/>
    <polygon id="89" class="fil26" points="7.88,41.93 8.62,41.24 127.66,167.95 126.92,168.65 "/>
    <polygon id="90" class="fil27" points="8.37,41.47 9.11,40.77 128.16,167.49 127.42,168.18 "/>
    <polygon id="91" class="fil28" points="8.87,41 9.61,40.31 128.65,167.02 127.91,167.72 "/>
    <polygon id="92" class="fil29" points="9.36,40.54 10.1,39.84 129.15,166.56 128.41,167.25 "/>
    <polygon id="93" class="fil29" points="9.86,40.07 10.6,39.38 129.64,166.09 128.9,166.79 "/>
    <polygon id="94" class="fil29" points="10.35,39.61 11.09,38.91 130.14,165.63 129.4,166.32 "/>
    <polygon id="95" class="fil30" points="10.85,39.14 11.59,38.45 130.63,165.16 129.89,165.86 "/>
    <polygon id="96" class="fil30" points="11.34,38.68 12.08,37.98 131.13,164.7 130.39,165.4 "/>
    <polygon id="97" class="fil31" points="11.84,38.21 12.58,37.52 131.62,164.23 130.88,164.93 "/>
    <polygon id="98" class="fil31" points="12.33,37.75 13.07,37.05 132.12,163.77 131.38,164.47 "/>
    <polygon id="99" class="fil32" points="12.83,37.28 13.57,36.59 132.61,163.3 131.87,164 "/>
    <polygon id="100" class="fil32" points="13.32,36.82 14.06,36.12 133.11,162.84 132.37,163.54 "/>
    <polygon id="101" class="fil33" points="13.82,36.35 14.56,35.66 133.6,162.37 132.86,163.07 "/>
    <polygon id="102" class="fil33" points="14.31,35.89 15.05,35.19 134.1,161.91 133.36,162.61 "/>
    <polygon id="103" class="fil34" points="14.8,35.42 15.55,34.73 134.59,161.44 133.85,162.14 "/>
    <polygon id="104" class="fil34" points="15.3,34.96 16.04,34.26 135.09,160.98 134.35,161.68 "/>
    <polygon id="105" class="fil35" points="15.79,34.49 16.54,33.8 135.58,160.51 134.84,161.21 "/>
    <polygon id="106" class="fil35" points="16.29,34.03 17.03,33.33 136.08,160.05 135.34,160.75 "/>
    <polygon id="107" class="fil36" points="16.78,33.56 17.53,32.87 136.57,159.58 135.83,160.28 "/>
    <polygon id="108" class="fil37" points="17.28,33.1 18.02,32.4 137.07,159.12 136.33,159.82 "/>
    <polygon id="109" class="fil37" points="17.77,32.63 18.52,31.94 137.56,158.65 136.82,159.35 "/>
    <polygon id="110" class="fil38" points="18.27,32.17 19.01,31.47 138.06,158.19 137.32,158.89 "/>
    <polygon id="111" class="fil38" points="18.76,31.71 19.51,31.01 138.55,157.72 137.81,158.42 "/>
    <polygon id="112" class="fil39" points="19.26,31.24 20,30.54 139.05,157.26 138.31,157.96 "/>
    <polygon id="113" class="fil39" points="19.75,30.78 20.5,30.08 139.54,156.79 138.8,157.49 "/>
    <polygon id="114" class="fil40" points="20.25,30.31 20.99,29.61 140.04,156.33 139.29,157.03 "/>
    <polygon id="115" class="fil40" points="20.74,29.85 21.49,29.15 140.53,155.86 139.79,156.56 "/>
    <polygon id="116" class="fil41" points="21.24,29.38 21.98,28.68 141.03,155.4 140.28,156.1 "/>
    <polygon id="117" class="fil42" points="21.73,28.92 22.48,28.22 141.52,154.93 140.78,155.63 "/>
    <polygon id="118" class="fil43" points="22.23,28.45 22.97,27.75 142.02,154.47 141.27,155.17 "/>
    <polygon id="119" class="fil44" points="22.72,27.99 23.47,27.29 142.51,154 141.77,154.7 "/>
    <polygon id="120" class="fil44" points="23.22,27.52 23.96,26.82 143.01,153.54 142.26,154.24 "/>
    <polygon id="121" class="fil45" points="23.71,27.06 24.46,26.36 143.5,153.07 142.76,153.77 "/>
    <polygon id="122" class="fil45" points="24.21,26.59 24.95,25.89 144,152.61 143.25,153.31 "/>
    <polygon id="123" class="fil46" points="24.7,26.13 25.45,25.43 144.49,152.14 143.75,152.84 "/>
    <polygon id="124" class="fil46" points="25.2,25.66 25.94,24.96 144.99,151.68 144.24,152.38 "/>
    <polygon id="125" class="fil47" points="25.69,25.2 26.43,24.5 145.48,151.21 144.74,151.91 "/>
    <polygon id="126" class="fil47" points="26.19,24.73 26.93,24.03 145.98,150.75 145.23,151.45 "/>
    <polygon id="127" class="fil48" points="26.68,24.27 27.42,23.57 146.47,150.28 145.73,150.98 "/>
    <polygon id="128" class="fil49" points="27.18,23.8 27.92,23.1 146.97,149.82 146.22,150.52 "/>
    <polygon id="129" class="fil50" points="27.67,23.34 28.41,22.64 147.46,149.35 146.72,150.05 "/>
    <polygon id="130" class="fil50" points="28.17,22.87 28.91,22.17 147.96,148.89 147.21,149.59 "/>
    <polygon id="131" class="fil51" points="28.66,22.41 29.4,21.71 148.45,148.42 147.71,149.12 "/>
    <polygon id="132" class="fil51" points="29.16,21.94 29.9,21.24 148.95,147.96 148.2,148.66 "/>
    <polygon id="133" class="fil52" points="29.65,21.48 30.39,20.78 149.44,147.49 148.7,148.19 "/>
    <polygon id="134" class="fil52" points="30.15,21.01 30.89,20.31 149.93,147.03 149.19,147.73 "/>
    <polygon id="135" class="fil53" points="30.64,20.55 31.38,19.85 150.43,146.57 149.69,147.26 "/>
    <polygon id="136" class="fil53" points="31.14,20.08 31.88,19.38 150.92,146.1 150.18,146.8 "/>
    <polygon id="137" class="fil54" points="31.63,19.62 32.37,18.92 151.42,145.64 150.68,146.33 "/>
    <polygon id="138" class="fil55" points="32.13,19.15 32.87,18.45 151.91,145.17 151.17,145.87 "/>
    <polygon id="139" class="fil56" points="32.62,18.69 33.36,17.99 152.41,144.71 151.67,145.4 "/>
    <polygon id="140" class="fil57" points="33.12,18.22 33.86,17.52 152.9,144.24 152.16,144.94 "/>
    <polygon id="141" class="fil57" points="33.61,17.76 34.35,17.06 153.4,143.78 152.66,144.47 "/>
    <polygon id="142" class="fil58" points="34.11,17.29 34.85,16.59 153.89,143.31 153.15,144.01 "/>
    <polygon id="143" class="fil58" points="34.6,16.83 35.34,16.13 154.39,142.85 153.65,143.54 "/>
    <polygon id="144" class="fil59" points="35.1,16.36 35.84,15.66 154.88,142.38 154.14,143.08 "/>
    <polygon id="145" class="fil59" points="35.59,15.9 36.33,15.2 155.38,141.92 154.64,142.61 "/>
    <polygon id="146" class="fil60" points="36.09,15.43 36.83,14.73 155.87,141.45 155.13,142.15 "/>
    <polygon id="147" class="fil60" points="36.58,14.97 37.32,14.27 156.37,140.99 155.63,141.68 "/>
    <polygon id="148" class="fil61" points="37.08,14.5 37.82,13.81 156.86,140.52 156.12,141.22 "/>
    <polygon id="149" class="fil62" points="37.57,14.04 38.31,13.34 157.36,140.06 156.62,140.75 "/>
    <polygon id="150" class="fil62" points="38.06,13.57 38.81,12.88 157.85,139.59 157.11,140.29 "/>
    <polygon id="151" class="fil63" points="38.56,13.11 39.3,12.41 158.35,139.13 157.61,139.82 "/>
    <polygon id="152" class="fil63" points="39.05,12.64 39.8,11.95 158.84,138.66 158.1,139.36 "/>
    <polygon id="153" class="fil64" points="39.55,12.18 40.29,11.48 159.34,138.2 158.6,138.89 "/>
    <polygon id="154" class="fil64" points="40.04,11.71 40.79,11.02 159.83,137.73 159.09,138.43 "/>
    <polygon id="155" class="fil65" points="40.54,11.25 41.28,10.55 160.33,137.27 159.59,137.96 "/>
    <polygon id="156" class="fil65" points="41.03,10.78 41.78,10.09 160.82,136.8 160.08,137.5 "/>
    <polygon id="157" class="fil66" points="41.53,10.32 42.27,9.62 161.32,136.34 160.58,137.03 "/>
    <polygon id="158" class="fil66" points="42.02,9.85 42.77,9.16 161.81,135.87 161.07,136.57 "/>
    <polygon id="159" class="fil67" points="42.52,9.39 43.26,8.69 162.31,135.41 161.56,136.1 "/>
    <polygon id="160" class="fil67" points="43.01,8.92 43.76,8.23 162.8,134.94 162.06,135.64 "/>
    <polygon id="161" class="fil68" points="43.51,8.46 44.25,7.76 163.3,134.48 162.55,135.17 "/>
    <polygon id="162" class="fil68" points="44,7.99 44.75,7.3 163.79,134.01 163.05,134.71 "/>
    <polygon id="163" class="fil68" points="44.5,7.53 45.24,6.83 164.29,133.55 163.54,134.24 "/>
    <polygon id="164" class="fil69" points="44.99,7.06 45.74,6.37 164.78,133.08 164.04,133.78 "/>
    <polygon id="165" class="fil70" points="45.49,6.6 46.23,5.9 165.28,132.62 164.53,133.31 "/>
    <polygon id="166" class="fil71" points="45.98,6.13 46.73,5.44 165.77,132.15 165.03,132.85 "/>
    <polygon id="167" class="fil71" points="46.48,5.67 47.22,4.97 166.27,131.69 165.52,132.38 "/>
    <polygon id="168" class="fil72" points="46.97,5.2 47.72,4.51 166.76,131.22 166.02,131.92 "/>
    <polygon id="169" class="fil72" points="47.47,4.74 48.21,4.04 167.26,130.76 166.51,131.45 "/>
    <polygon id="170" class="fil72" points="47.96,4.27 48.7,3.58 167.75,130.29 167.01,130.99 "/>
    <polygon id="171" class="fil73" points="48.46,3.81 49.2,3.11 168.25,129.83 167.5,130.52 "/>
    <polygon id="172" class="fil73" points="48.95,3.34 49.69,2.65 168.74,129.36 168,130.06 "/>
    <polygon id="173" class="fil74" points="49.45,2.88 50.19,2.18 169.24,128.9 168.49,129.59 "/>
    <polygon id="174" class="fil75" points="49.94,2.41 50.68,1.72 169.73,128.43 168.99,129.13 "/>
    <polygon id="175" class="fil75" points="50.44,1.95 51.18,1.25 170.23,127.97 169.48,128.67 "/>
    <polygon id="176" class="fil76" points="50.93,1.48 51.67,0.79 170.72,127.5 169.98,128.2 "/>
    <polygon id="177" class="fil76" points="51.43,1.02 52.17,0.32 171.22,127.04 170.47,127.74 "/>
    <polygon id="178" class="fil77" points="51.92,0.55 52.66,-0.14 171.71,126.57 170.97,127.27 "/>
    <polygon id="179" class="fil78" points="52.42,0.09 53.16,-0.61 172.2,126.11 171.46,126.81 "/>
    <polygon id="180" class="fil78" points="52.91,-0.38 53.65,-1.07 172.7,125.64 171.96,126.34 "/>
    <polygon id="181" class="fil79" points="53.41,-0.84 54.15,-1.54 173.19,125.18 172.45,125.88 "/>
    <polygon id="182" class="fil79" points="53.9,-1.31 54.64,-2 173.69,124.71 172.95,125.41 "/>
    <polygon id="183" class="fil79" points="54.4,-1.77 55.14,-2.47 174.18,124.25 173.44,124.95 "/>
    <polygon id="184" class="fil80" points="54.89,-2.24 55.63,-2.93 174.68,123.78 173.94,124.48 "/>
    <polygon id="185" class="fil80" points="55.39,-2.7 56.13,-3.4 175.17,123.32 174.43,124.02 "/>
    <polygon id="186" class="fil80" points="55.88,-3.17 56.62,-3.86 175.67,122.85 174.93,123.55 "/>
    <polygon id="187" class="fil81" points="56.38,-3.63 57.12,-4.33 176.16,122.39 175.42,123.09 "/>
    <polygon id="188" class="fil81" points="56.87,-4.09 57.61,-4.79 176.66,121.92 175.92,122.62 "/>
    <polygon id="189" class="fil81" points="57.37,-4.56 58.11,-5.26 177.15,121.46 176.41,122.16 "/>
    <polygon id="190" class="fil82" points="57.86,-5.02 58.6,-5.72 177.65,120.99 176.91,121.69 "/>
    <polygon id="191" class="fil82" points="58.36,-5.49 59.1,-6.19 178.14,120.53 177.4,121.23 "/>
    <polygon id="192" class="fil82" points="58.85,-5.95 59.59,-6.65 178.64,120.06 177.9,120.76 "/>
    <polygon id="193" class="fil83" points="59.35,-6.42 60.09,-7.12 179.13,119.6 178.39,120.3 "/>
    <polygon id="194" class="fil83" points="59.84,-6.88 60.58,-7.58 179.63,119.13 178.89,119.83 "/>
    <polygon id="195" class="fil84" points="60.33,-7.35 61.08,-8.05 180.12,118.67 179.38,119.37 "/>
    <polygon id="196" class="fil85" points="60.83,-7.81 61.57,-8.51 180.62,118.2 179.88,118.9 "/>
    <polygon id="197" class="fil86" points="61.32,-8.28 62.07,-8.98 181.11,117.74 180.37,118.44 "/>
    <polygon id="198" class="fil86" points="61.82,-8.74 62.56,-9.44 181.61,117.27 180.87,117.97 "/>
    <polygon id="199" class="fil86" points="62.31,-9.21 63.06,-9.91 182.1,116.81 181.36,117.51 "/>
    <polygon id="200" class="fil87" points="62.81,-9.67 63.55,-10.37 182.6,116.34 181.86,117.04 "/>
    <polygon id="201" class="fil87" points="63.3,-10.14 64.05,-10.84 183.09,115.88 182.35,116.58 "/>
    <polygon id="202" class="fil87" points="63.8,-10.6 64.54,-11.3 183.59,115.41 182.85,116.11 "/>
    <polygon id="203" class="fil87" points="64.29,-11.07 65.04,-11.77 184.08,114.95 183.34,115.65 "/>
    <polygon id="204" class="fil88" points="64.79,-11.53 65.53,-12.23 184.58,114.48 183.83,115.18 "/>
    <polygon id="205" class="fil88" points="65.28,-12 66.03,-12.7 185.07,114.02 184.33,114.72 "/>
    <polygon id="206" class="fil88" points="65.78,-12.46 66.52,-13.16 185.57,113.55 184.82,114.25 "/>
    <polygon id="207" class="fil88" points="66.27,-12.93 67.02,-13.63 186.06,113.09 185.32,113.79 "/>
    <polygon id="208" class="fil89" points="66.77,-13.39 67.51,-14.09 186.56,112.62 185.81,113.32 "/>
    <polygon id="209" class="fil90" points="67.26,-13.86 68.01,-14.56 187.05,112.16 186.31,112.86 "/>
    <polygon id="210" class="fil90" points="67.76,-14.32 68.5,-15.02 187.55,111.7 186.8,112.39 "/>
    <polygon id="211" class="fil90" points="68.25,-14.79 69,-15.49 188.04,111.23 187.3,111.93 "/>
    <polygon id="212" class="fil90" points="68.75,-15.25 69.49,-15.95 188.54,110.77 187.79,111.46 "/>
    <polygon id="213" class="fil91" points="69.24,-15.72 69.99,-16.42 189.03,110.3 188.29,111 "/>
    <polygon id="214" class="fil91" points="69.74,-16.18 70.48,-16.88 189.53,109.84 188.78,110.53 "/>
    <polygon id="215" class="fil91" points="70.23,-16.65 70.97,-17.35 190.02,109.37 189.28,110.07 "/>
    <polygon id="216" class="fil91" points="70.73,-17.11 71.47,-17.81 190.52,108.91 189.77,109.6 "/>
    <polygon id="217" class="fil91" points="71.22,-17.58 71.96,-18.28 191.01,108.44 190.27,109.14 "/>
    <polygon id="218" class="fil92" points="71.72,-18.04 72.46,-18.74 191.51,107.98 190.76,108.67 "/>
    <polygon id="219" class="fil92" points="72.21,-18.51 72.95,-19.21 192,107.51 191.26,108.21 "/>
    <polygon id="220" class="fil92" points="72.71,-18.97 73.45,-19.67 192.5,107.05 191.75,107.74 "/>
    <polygon id="221" class="fil93" points="73.2,-19.44 73.94,-20.14 192.99,106.58 192.25,107.28 "/>
    <polygon id="222" class="fil93" points="73.7,-19.9 74.44,-20.6 193.49,106.12 192.74,106.81 "/>
    <polygon id="223" class="fil93" points="74.19,-20.37 74.93,-21.07 193.98,105.65 193.24,106.35 "/>
    <polygon id="224" class="fil94" points="74.69,-20.83 75.43,-21.53 194.47,105.19 193.73,105.88 "/>
    <polygon id="225" class="fil94" points="75.18,-21.3 75.92,-21.99 194.97,104.72 194.23,105.42 "/>
    <polygon id="226" class="fil94" points="75.68,-21.76 76.42,-22.46 195.46,104.26 194.72,104.95 "/>
    <polygon id="227" class="fil94" points="76.17,-22.23 76.91,-22.92 195.96,103.79 195.22,104.49 "/>
    <polygon id="228" class="fil95" points="76.67,-22.69 77.41,-23.39 196.45,103.33 195.71,104.02 "/>
    <polygon id="229" class="fil95" points="77.16,-23.16 77.9,-23.85 196.95,102.86 196.21,103.56 "/>
    <polygon id="230" class="fil95" points="77.66,-23.62 78.4,-24.32 197.44,102.4 196.7,103.09 "/>
    <polygon id="231" class="fil96" points="78.15,-24.09 78.89,-24.78 197.94,101.93 197.2,102.63 "/>
    <polygon id="232" class="fil96" points="78.65,-24.55 79.39,-25.25 198.43,101.47 197.69,102.16 "/>
    <polygon id="233" class="fil96" points="79.14,-25.02 79.88,-25.71 198.93,101 198.19,101.7 "/>
    <polygon id="234" class="fil96" points="79.64,-25.48 80.38,-26.18 199.42,100.54 198.68,101.23 "/>
    <polygon id="235" class="fil96" points="80.13,-25.95 80.87,-26.64 199.92,100.07 199.18,100.77 "/>
    <polygon id="236" class="fil96" points="80.63,-26.41 81.37,-27.11 200.41,99.61 199.67,100.3 "/>
    <polygon id="237" class="fil96" points="81.12,-26.88 81.86,-27.57 200.91,99.14 200.17,99.84 "/>
    <polygon id="238" class="fil96" points="81.61,-27.34 82.36,-28.04 201.4,98.68 200.66,99.37 "/>
    <polygon id="239" class="fil96" points="82.11,-27.81 82.85,-28.5 201.9,98.21 201.16,98.91 "/>
    <polygon id="240" class="fil96" points="82.6,-28.27 83.35,-28.97 202.39,97.75 201.65,98.44 "/>
    <polygon id="241" class="fil97" points="83.1,-28.74 83.84,-29.43 202.89,97.28 202.15,97.98 "/>
    <polygon id="242" class="fil97" points="83.59,-29.2 84.34,-29.9 203.38,96.82 202.64,97.51 "/>
    <polygon id="243" class="fil97" points="84.09,-29.67 84.83,-30.36 203.88,96.35 203.14,97.05 "/>
    <polygon id="244" class="fil97" points="84.58,-30.13 85.33,-30.83 204.37,95.89 203.63,96.58 "/>
    <polygon id="245" class="fil97" points="85.08,-30.6 85.82,-31.29 204.87,95.42 204.13,96.12 "/>
    <polygon id="246" class="fil97" points="85.57,-31.06 86.32,-31.76 205.36,94.96 204.62,95.65 "/>
    <polygon id="247" class="fil97" points="86.07,-31.53 86.81,-32.22 205.86,94.49 205.12,95.19 "/>
    <polygon id="248" class="fil97" points="86.56,-31.99 87.31,-32.69 206.35,94.03 205.61,94.72 "/>
    <polygon id="249" class="fil97" points="87.06,-32.46 87.8,-33.15 206.85,93.56 206.1,94.26 "/>
    <polygon id="250" class="fil97" points="87.55,-32.92 88.3,-33.62 207.34,93.1 206.6,93.79 "/>
    <polygon id="251" class="fil97" points="88.05,-33.39 88.79,-34.08 207.84,92.63 207.09,93.33 "/>
    <polygon id="252" class="fil97" points="88.54,-33.85 89.29,-34.55 208.33,92.17 207.59,92.87 "/>
    <polygon id="253" class="fil97" points="89.04,-34.32 89.78,-35.01 208.83,91.7 208.08,92.4 "/>
    <polygon id="254" class="fil97" points="89.53,-34.78 90.28,-35.48 209.32,91.24 208.58,91.94 "/>
    <polygon id="255" class="fil97" points="90.03,-35.25 90.7,-35.88 209.75,90.84 209.07,91.47 "/>
   </g>
  </g>
  <path class="fil98" d="M85.95 160.73c-0.8,0 -1.06,1.07 -0.35,1.44 0.11,0.06 0.21,0.08 0.33,0.08 0.52,0.01 1.03,0.01 1.54,0 0.17,0 0.32,-0.05 0.46,-0.16 0.57,-0.44 0.26,-1.36 -0.47,-1.36 -0.5,0 -1,0 -1.51,0zm-7.71 1.06c0.75,0.09 1.17,-0.88 0.56,-1.36 -0.12,-0.09 -0.23,-0.14 -0.38,-0.16 -0.51,-0.05 -1.01,-0.12 -1.51,-0.18 -0.31,-0.04 -0.6,0.1 -0.76,0.38 -0.27,0.46 0.03,1.06 0.56,1.13 0.51,0.07 1.02,0.13 1.53,0.19zm-9.11 -1.6c0.73,0.19 1.26,-0.72 0.74,-1.26 -0.1,-0.11 -0.23,-0.18 -0.38,-0.22 -0.49,-0.12 -0.98,-0.24 -1.46,-0.37 -0.82,-0.21 -1.33,0.87 -0.64,1.36 0.08,0.06 0.16,0.09 0.25,0.12 0.49,0.13 0.99,0.25 1.49,0.37zm-8.84 -2.71c0.1,0.04 0.17,0.05 0.27,0.05 0.86,-0.03 1.05,-1.16 0.27,-1.47 -0.47,-0.18 -0.94,-0.36 -1.41,-0.55 -0.77,-0.31 -1.42,0.68 -0.8,1.27 0.07,0.06 0.14,0.11 0.23,0.15 0.48,0.19 0.96,0.37 1.44,0.55zm-8.44 -3.78c0.77,0.4 1.5,-0.58 0.9,-1.21 -0.05,-0.05 -0.12,-0.1 -0.19,-0.14 -0.44,-0.23 -0.88,-0.47 -1.33,-0.71 -0.26,-0.15 -0.58,-0.13 -0.82,0.05 -0.45,0.33 -0.4,1 0.08,1.28 0.45,0.25 0.91,0.49 1.36,0.73zm-7.91 -4.8c0.78,0.52 1.62,-0.49 0.98,-1.16 -0.03,-0.03 -0.07,-0.06 -0.1,-0.08 -0.42,-0.29 -0.83,-0.58 -1.24,-0.88 -0.65,-0.47 -1.52,0.26 -1.1,1.01 0.05,0.09 0.12,0.16 0.2,0.22 0.42,0.3 0.84,0.6 1.26,0.89zm-7.26 -5.72c0.56,0.51 1.48,-0.05 1.23,-0.82 -0.04,-0.12 -0.11,-0.23 -0.21,-0.32 -0.38,-0.33 -0.75,-0.67 -1.12,-1.02 -0.63,-0.57 -1.61,0.16 -1.17,0.96 0.04,0.06 0.08,0.11 0.13,0.16 0.38,0.35 0.76,0.7 1.14,1.04zm-6.51 -6.57c0.57,0.64 1.61,0 1.28,-0.8 -0.03,-0.08 -0.07,-0.14 -0.12,-0.2 -0.33,-0.38 -0.66,-0.77 -0.99,-1.15 -0.23,-0.28 -0.61,-0.35 -0.94,-0.19 -0.43,0.22 -0.54,0.79 -0.23,1.17 0.33,0.39 0.67,0.78 1,1.17zm-5.65 -7.32c0.45,0.66 1.52,0.27 1.38,-0.58 -0.02,-0.1 -0.06,-0.19 -0.11,-0.27 -0.29,-0.42 -0.56,-0.84 -0.84,-1.26 -0.21,-0.32 -0.57,-0.43 -0.93,-0.3 -0.44,0.19 -0.61,0.72 -0.35,1.12 0.27,0.43 0.56,0.86 0.85,1.29zm-4.71 -7.96c0.39,0.75 1.52,0.42 1.44,-0.43 -0.02,-0.09 -0.04,-0.17 -0.08,-0.26 -0.23,-0.45 -0.46,-0.9 -0.68,-1.35 -0.13,-0.27 -0.41,-0.44 -0.71,-0.43 -0.55,0.02 -0.9,0.6 -0.66,1.09 0.22,0.46 0.45,0.92 0.69,1.38zm-3.7 -8.48c0.24,0.64 1.11,0.68 1.41,0.08 0.08,-0.2 0.1,-0.39 0.03,-0.59 -0.17,-0.48 -0.34,-0.95 -0.51,-1.43 -0.21,-0.68 -1.2,-0.69 -1.44,0 -0.06,0.16 -0.05,0.33 0,0.49 0.17,0.49 0.34,0.97 0.51,1.45zm-2.62 -8.87c0.08,0.35 0.39,0.6 0.74,0.6 0.5,0 0.86,-0.45 0.75,-0.93 -0.11,-0.49 -0.22,-0.98 -0.32,-1.48 -0.19,-0.86 -1.45,-0.78 -1.51,0.13 0,0.06 0,0.12 0.01,0.18 0.11,0.5 0.22,1 0.33,1.5zm-1.5 -9.12c0.07,0.78 1.17,0.95 1.47,0.2 0.05,-0.12 0.06,-0.23 0.05,-0.35 -0.05,-0.5 -0.1,-1 -0.14,-1.5 -0.08,-0.82 -1.17,-0.97 -1.47,-0.21 -0.04,0.11 -0.06,0.2 -0.05,0.32 0.03,0.35 0.06,0.7 0.09,1.04l0.05 0.5zm-0.37 -9.24c-0.03,0.79 1.06,1.09 1.44,0.36 0.05,-0.11 0.08,-0.2 0.08,-0.32l0.01 -0.4c0.01,-0.37 0.02,-0.74 0.04,-1.11 0.02,-0.78 -0.96,-1.1 -1.41,-0.45 -0.07,0.12 -0.11,0.23 -0.12,0.38l-0.02 0.66 -0.02 0.88zm0.75 -9.22c-0.03,0.17 0,0.35 0.09,0.49 0.36,0.63 1.3,0.45 1.41,-0.27 0.08,-0.49 0.15,-0.99 0.23,-1.49 0.14,-0.85 -1.02,-1.25 -1.43,-0.46 -0.03,0.07 -0.06,0.14 -0.07,0.21 -0.08,0.51 -0.16,1.02 -0.23,1.52zm1.87 -9.05c-0.04,0.15 -0.03,0.32 0.02,0.47 0.27,0.69 1.25,0.64 1.45,-0.07 0.14,-0.48 0.27,-0.97 0.41,-1.45 0.14,-0.46 -0.17,-0.93 -0.66,-0.98 -0.35,-0.03 -0.7,0.2 -0.8,0.54 -0.14,0.5 -0.28,0.99 -0.42,1.49zm2.99 -8.76c-0.28,0.7 0.47,1.33 1.12,0.93 0.12,-0.08 0.23,-0.2 0.28,-0.34 0.2,-0.47 0.39,-0.93 0.59,-1.39 0.34,-0.77 -0.64,-1.44 -1.24,-0.84 -0.07,0.06 -0.12,0.14 -0.15,0.22 -0.21,0.48 -0.41,0.95 -0.6,1.42zm4.04 -8.31c-0.15,0.25 -0.13,0.55 0.02,0.79 0.31,0.48 1.02,0.45 1.3,-0.04 0.25,-0.44 0.5,-0.88 0.76,-1.31 0.41,-0.67 -0.38,-1.47 -1.08,-1.02 -0.1,0.06 -0.17,0.14 -0.23,0.24 -0.26,0.44 -0.52,0.89 -0.77,1.34zm5.03 -7.76c-0.5,0.69 0.33,1.57 1.05,1.08 0.07,-0.05 0.13,-0.1 0.17,-0.17 0.31,-0.4 0.61,-0.81 0.92,-1.21 0.47,-0.61 -0.15,-1.46 -0.91,-1.16 -0.12,0.06 -0.21,0.12 -0.3,0.23 -0.31,0.41 -0.62,0.82 -0.93,1.23zm5.95 -7.08c-0.57,0.59 0.08,1.56 0.86,1.22 0.1,-0.04 0.17,-0.09 0.24,-0.17 0.35,-0.36 0.7,-0.73 1.05,-1.08 0.59,-0.59 -0.06,-1.57 -0.84,-1.24 -0.09,0.04 -0.17,0.09 -0.24,0.16 -0.36,0.37 -0.72,0.74 -1.07,1.11zm6.77 -6.3c-0.7,0.58 0.01,1.67 0.83,1.26 0.05,-0.02 0.09,-0.05 0.13,-0.08 0.39,-0.32 0.78,-0.64 1.18,-0.95 0.67,-0.54 0.09,-1.6 -0.73,-1.32 -0.08,0.03 -0.15,0.07 -0.21,0.12 -0.4,0.32 -0.8,0.64 -1.2,0.97zm7.49 -5.43c-0.26,0.16 -0.4,0.47 -0.35,0.77 0.09,0.54 0.7,0.81 1.16,0.52 0.42,-0.27 0.85,-0.54 1.28,-0.8 0.74,-0.44 0.28,-1.59 -0.57,-1.39 -0.08,0.02 -0.15,0.05 -0.21,0.09 -0.44,0.26 -0.88,0.53 -1.31,0.81zm8.1 -4.47c-0.81,0.39 -0.41,1.61 0.48,1.44 0.05,-0.01 0.11,-0.03 0.16,-0.05 0.46,-0.22 0.91,-0.43 1.38,-0.64 0.61,-0.26 0.59,-1.16 -0.04,-1.4 -0.2,-0.08 -0.39,-0.08 -0.58,0.01 -0.47,0.21 -0.94,0.42 -1.4,0.64zm8.58 -3.43c-0.64,0.21 -0.71,1.09 -0.11,1.4 0.19,0.1 0.38,0.12 0.58,0.05 0.48,-0.15 0.96,-0.31 1.45,-0.46 0.79,-0.25 0.68,-1.37 -0.13,-1.48 -0.12,-0.01 -0.21,-0.01 -0.32,0.03 -0.49,0.15 -0.98,0.3 -1.47,0.46zm8.95 -2.34c-0.21,0.04 -0.41,0.18 -0.51,0.36 -0.33,0.57 0.15,1.26 0.8,1.14 0.49,-0.1 0.99,-0.19 1.48,-0.28 0.85,-0.16 0.84,-1.36 -0.01,-1.5 -0.09,-0.01 -0.16,-0.01 -0.24,0 -0.51,0.09 -1.01,0.18 -1.52,0.28zm9.16 -1.22c-0.78,0.05 -0.99,1.14 -0.22,1.47 0.11,0.04 0.21,0.06 0.33,0.05l0.56 -0.04c0.3,-0.01 0.67,-0.01 0.95,-0.05 0.84,-0.05 1,-1.21 0.2,-1.49 -0.1,-0.03 -0.18,-0.04 -0.27,-0.03 -0.33,0.01 -0.65,0.03 -0.97,0.05l-0.58 0.04zm9.25 -0.09c-0.76,-0.05 -1.1,0.96 -0.47,1.38 0.11,0.09 0.25,0.13 0.39,0.14 0.32,0.01 0.64,0.03 0.96,0.05l0.55 0.04c0.84,0.05 1.15,-1.09 0.35,-1.46 -0.08,-0.03 -0.14,-0.05 -0.24,-0.06l-0.57 -0.04c-0.32,-0.02 -0.65,-0.04 -0.97,-0.05zm9.19 1.03c-0.76,-0.14 -1.24,0.85 -0.59,1.36 0.1,0.07 0.2,0.12 0.32,0.14 0.5,0.09 1,0.18 1.49,0.28 0.87,0.16 1.28,-1.04 0.48,-1.44 -0.06,-0.03 -0.12,-0.05 -0.18,-0.06 -0.51,-0.1 -1.01,-0.19 -1.52,-0.28zm9 2.16c-0.71,-0.23 -1.29,0.61 -0.83,1.2 0.11,0.12 0.22,0.2 0.37,0.25 0.49,0.15 0.97,0.3 1.45,0.46 0.79,0.26 1.36,-0.76 0.73,-1.3 -0.08,-0.07 -0.16,-0.12 -0.26,-0.15 -0.48,-0.16 -0.97,-0.31 -1.46,-0.46zm8.65 3.25c-0.68,-0.3 -1.34,0.43 -0.96,1.09 0.08,0.13 0.19,0.23 0.33,0.3 0.47,0.2 0.92,0.42 1.38,0.63 0.23,0.11 0.5,0.09 0.72,-0.03 0.52,-0.32 0.48,-1.08 -0.07,-1.35 -0.46,-0.22 -0.93,-0.43 -1.4,-0.64zm8.19 4.3c-0.7,-0.43 -1.5,0.42 -1.01,1.1 0.06,0.08 0.13,0.15 0.22,0.2 0.43,0.26 0.86,0.52 1.28,0.79 0.71,0.45 1.52,-0.4 1.02,-1.09 -0.05,-0.08 -0.12,-0.14 -0.2,-0.19 -0.43,-0.28 -0.87,-0.55 -1.31,-0.81zm7.6 5.27c-0.63,-0.51 -1.53,0.21 -1.15,0.96 0.06,0.09 0.12,0.16 0.2,0.23 0.4,0.31 0.79,0.63 1.18,0.95 0.66,0.53 1.55,-0.23 1.15,-0.96 -0.05,-0.09 -0.1,-0.15 -0.18,-0.22 -0.4,-0.32 -0.8,-0.64 -1.2,-0.96zm6.89 6.16c-0.57,-0.57 -1.52,0.01 -1.25,0.8 0.04,0.1 0.09,0.19 0.17,0.27 0.35,0.36 0.7,0.72 1.05,1.08 0.57,0.59 1.54,0.01 1.27,-0.78 -0.04,-0.11 -0.08,-0.18 -0.16,-0.26 -0.35,-0.38 -0.71,-0.75 -1.08,-1.11zm6.1 6.96c-0.11,-0.14 -0.26,-0.24 -0.42,-0.28 -0.71,-0.17 -1.23,0.64 -0.79,1.21 0.3,0.4 0.61,0.8 0.91,1.2 0.19,0.27 0.55,0.38 0.85,0.27 0.5,-0.17 0.68,-0.75 0.38,-1.17 -0.31,-0.42 -0.62,-0.83 -0.93,-1.23zm5.19 7.65c-0.45,-0.74 -1.57,-0.31 -1.4,0.55 0.02,0.08 0.04,0.15 0.09,0.22 0.25,0.44 0.5,0.87 0.75,1.31 0.43,0.75 1.58,0.33 1.41,-0.54 -0.01,-0.07 -0.04,-0.14 -0.08,-0.21 -0.25,-0.44 -0.51,-0.89 -0.77,-1.33zm4.21 8.23c-0.33,-0.76 -1.49,-0.52 -1.46,0.35 0.01,0.09 0.03,0.17 0.06,0.26 0.2,0.46 0.4,0.92 0.59,1.39 0.11,0.26 0.37,0.45 0.65,0.47 0.57,0.04 0.97,-0.52 0.76,-1.05 -0.19,-0.47 -0.39,-0.95 -0.6,-1.42zm3.17 8.69c-0.23,-0.79 -1.41,-0.7 -1.5,0.15 0,0.1 0.01,0.19 0.03,0.28 0.14,0.48 0.28,0.97 0.42,1.45 0.25,0.86 1.49,0.69 1.49,-0.21 0,-0.07 -0.01,-0.12 -0.02,-0.18 -0.14,-0.5 -0.28,-0.99 -0.42,-1.49zm2.06 9.02c-0.12,-0.8 -1.27,-0.89 -1.49,-0.06 -0.03,0.1 -0.03,0.19 -0.02,0.3 0.09,0.5 0.16,0.99 0.23,1.49 0.14,0.87 1.37,0.87 1.51,0.01 0.01,-0.08 0.01,-0.14 0,-0.22 -0.07,-0.51 -0.15,-1.01 -0.23,-1.52zm0.94 9.2c-0.03,-0.8 -1.13,-1.03 -1.46,-0.28 -0.05,0.11 -0.07,0.22 -0.07,0.33 0.02,0.51 0.04,1.01 0.05,1.52 0.03,0.84 1.18,1.03 1.48,0.24 0.03,-0.09 0.05,-0.18 0.04,-0.27l-0.02 -0.88 -0.02 -0.66zm-0.19 9.24c0.02,-0.16 -0.02,-0.31 -0.1,-0.45 -0.38,-0.64 -1.35,-0.42 -1.42,0.33 -0.04,0.49 -0.08,1 -0.14,1.5 -0.08,0.9 1.2,1.18 1.49,0.3 0.01,-0.05 0.02,-0.09 0.03,-0.14l0.05 -0.5c0.03,-0.34 0.06,-0.69 0.09,-1.04zm-1.31 9.16c0.16,-0.75 -0.78,-1.26 -1.33,-0.66 -0.08,0.11 -0.14,0.21 -0.17,0.34 -0.1,0.5 -0.21,0.99 -0.32,1.48 -0.18,0.84 0.94,1.31 1.41,0.55 0.03,-0.07 0.06,-0.14 0.08,-0.21 0.11,-0.5 0.22,-1 0.33,-1.5zm-2.44 8.92c0.26,-0.81 -0.74,-1.36 -1.28,-0.76 -0.08,0.08 -0.12,0.16 -0.16,0.26 -0.16,0.48 -0.33,0.95 -0.5,1.43 -0.29,0.78 0.73,1.4 1.3,0.75 0.05,-0.07 0.1,-0.14 0.13,-0.23 0.17,-0.48 0.35,-0.97 0.51,-1.45zm-3.52 8.55c0.36,-0.75 -0.56,-1.46 -1.19,-0.9 -0.08,0.06 -0.14,0.14 -0.18,0.23 -0.22,0.45 -0.44,0.9 -0.67,1.35 -0.37,0.72 0.49,1.47 1.17,0.94 0.08,-0.08 0.13,-0.15 0.18,-0.24 0.24,-0.46 0.47,-0.92 0.69,-1.38zm-4.55 8.05c0.42,-0.62 -0.25,-1.41 -0.93,-1.12 -0.14,0.06 -0.26,0.16 -0.35,0.29 -0.27,0.42 -0.55,0.84 -0.83,1.26 -0.46,0.69 0.34,1.52 1.05,1.06 0.08,-0.05 0.16,-0.12 0.21,-0.2 0.29,-0.43 0.58,-0.86 0.85,-1.29zm-5.5 7.43c0.23,-0.27 0.24,-0.67 0.02,-0.95 -0.29,-0.39 -0.87,-0.4 -1.18,-0.03 -0.33,0.39 -0.66,0.77 -0.99,1.15 -0.55,0.62 0.17,1.57 0.94,1.17 0.08,-0.05 0.15,-0.1 0.21,-0.17 0.33,-0.38 0.67,-0.77 1,-1.17zm-6.37 6.71c0.26,-0.24 0.32,-0.63 0.15,-0.93 -0.24,-0.44 -0.82,-0.53 -1.19,-0.19 -0.36,0.34 -0.74,0.68 -1.11,1.02 -0.61,0.56 -0.05,1.54 0.74,1.29 0.11,-0.03 0.19,-0.08 0.27,-0.15 0.38,-0.34 0.77,-0.69 1.14,-1.04zm-7.14 5.87c0.66,-0.48 0.2,-1.52 -0.6,-1.36 -0.11,0.02 -0.2,0.06 -0.29,0.12 -0.41,0.3 -0.82,0.59 -1.24,0.88 -0.21,0.14 -0.34,0.41 -0.32,0.67 0.04,0.6 0.69,0.92 1.19,0.58 0.42,-0.29 0.84,-0.59 1.26,-0.89zm-7.81 4.96c0.76,-0.44 0.34,-1.59 -0.54,-1.41 -0.06,0.01 -0.14,0.04 -0.19,0.07 -0.44,0.24 -0.89,0.48 -1.33,0.72 -0.73,0.37 -0.43,1.49 0.41,1.43 0.11,-0.01 0.2,-0.03 0.29,-0.08 0.46,-0.24 0.91,-0.48 1.36,-0.73zm-8.36 3.95c0.78,-0.31 0.57,-1.47 -0.29,-1.47 -0.1,0.01 -0.18,0.02 -0.27,0.06 -0.47,0.18 -0.94,0.37 -1.41,0.54 -0.74,0.28 -0.62,1.39 0.21,1.48 0.11,0.01 0.21,-0.01 0.32,-0.05 0.48,-0.18 0.96,-0.37 1.44,-0.56zm-8.78 2.9c0.28,-0.08 0.51,-0.32 0.56,-0.61 0.09,-0.55 -0.41,-1.01 -0.94,-0.87 -0.49,0.13 -0.98,0.25 -1.47,0.37 -0.83,0.21 -0.75,1.39 0.08,1.5 0.1,0.01 0.17,0 0.27,-0.02 0.5,-0.12 1,-0.24 1.5,-0.37zm-9.08 1.78c0.8,-0.1 0.91,-1.24 0.12,-1.49 -0.11,-0.03 -0.2,-0.04 -0.31,-0.02 -0.5,0.06 -1,0.12 -1.5,0.18 -0.86,0.11 -0.93,1.31 -0.08,1.51 0.08,0.01 0.16,0.01 0.24,0.01 0.51,-0.06 1.02,-0.12 1.53,-0.19z"/>
 </g>
</svg>
