<svg xmlns="http://www.w3.org/2000/svg" xml:space="preserve" width="256" height="257" style="shape-rendering:geometricPrecision;text-rendering:geometricPrecision;image-rendering:optimizeQuality;fill-rule:evenodd;clip-rule:evenodd" viewBox="0 0 173.4 174.32"><defs><clipPath id="id0"><path d="m89.02 1.07 4.11 4.82a3.046 3.046 0 0 0 4.18.44l5.02-3.86c.73-.56 1.59-.76 2.49-.57.91.2 1.61.72 2.05 1.54L109.88 9c.78 1.43 2.54 2.01 4 1.3l5.71-2.73c.84-.4 1.72-.41 2.56-.03.85.37 1.42 1.03 1.69 1.92l1.79 6.07a3.04 3.04 0 0 0 3.64 2.1l6.15-1.48c.9-.22 1.76-.05 2.51.5.75.54 1.18 1.31 1.25 2.23l.49 6.31c.12 1.62 1.5 2.86 3.12 2.81l6.33-.17c.93-.03 1.73.32 2.35 1.01.62.69.88 1.52.76 2.44l-.84 6.28c-.21 1.61.88 3.1 2.48 3.4l6.22 1.14c.91.17 1.63.68 2.09 1.48.46.8.54 1.67.23 2.55l-2.12 5.96c-.54 1.53.21 3.22 1.71 3.84l5.86 2.42c.85.35 1.45 1 1.73 1.88.29.88.19 1.75-.3 2.53l-3.31 5.4c-.86 1.38-.47 3.19.87 4.11l5.22 3.58c.77.52 1.22 1.28 1.31 2.2.1.92-.18 1.75-.82 2.42l-4.37 4.59a3.045 3.045 0 0 0 0 4.2l4.37 4.59c.64.67.92 1.5.82 2.42-.09.92-.54 1.67-1.31 2.2l-5.22 3.58a3.037 3.037 0 0 0-.87 4.11l3.31 5.39c.49.79.59 1.66.3 2.54-.28.88-.88 1.53-1.73 1.88l-5.86 2.41c-1.5.63-2.25 2.31-1.71 3.85l2.12 5.96c.31.87.23 1.75-.23 2.55-.46.8-1.18 1.31-2.09 1.47l-6.22 1.15c-1.6.29-2.69 1.79-2.48 3.4l.84 6.28c.12.91-.14 1.75-.76 2.44s-1.42 1.03-2.35 1.01l-6.33-.18c-1.62-.04-3 1.2-3.12 2.82l-.49 6.31c-.07.92-.5 1.69-1.25 2.23-.75.55-1.61.72-2.51.5l-6.15-1.49c-1.58-.38-3.18.55-3.64 2.11l-1.79 6.07c-.27.89-.84 1.55-1.69 1.92-.84.38-1.72.37-2.56-.03l-5.71-2.74c-1.46-.7-3.22-.13-4 1.3l-3.01 5.57c-.44.82-1.14 1.34-2.05 1.53-.9.2-1.76 0-2.49-.56l-5.02-3.86c-1.29-1-3.13-.8-4.18.44l-4.11 4.82c-.6.7-1.39 1.07-2.32 1.07-.93 0-1.72-.37-2.32-1.07l-4.11-4.82a3.036 3.036 0 0 0-4.18-.44l-5.02 3.86c-.73.56-1.59.76-2.49.56-.91-.19-1.61-.71-2.05-1.53l-3.01-5.57c-.78-1.43-2.53-2-4-1.3l-5.71 2.74c-.84.4-1.72.41-2.56.03-.85-.37-1.42-1.03-1.69-1.92l-1.79-6.07a3.054 3.054 0 0 0-3.64-2.11l-6.15 1.49c-.9.22-1.76.05-2.51-.5a2.943 2.943 0 0 1-1.25-2.23l-.49-6.31a3.055 3.055 0 0 0-3.12-2.82l-6.33.18c-.93.02-1.73-.32-2.35-1.01-.62-.69-.88-1.53-.76-2.44l.84-6.28c.21-1.61-.88-3.11-2.48-3.4l-6.22-1.15c-.91-.16-1.63-.67-2.09-1.47-.46-.8-.54-1.68-.23-2.55l2.12-5.96c.54-1.54-.21-3.22-1.71-3.85l-5.86-2.41c-.85-.35-1.45-1-1.73-1.88-.29-.88-.19-1.75.3-2.54l3.31-5.39c.86-1.39.47-3.19-.87-4.11l-5.22-3.58a2.964 2.964 0 0 1-1.31-2.2c-.1-.92.18-1.75.82-2.42l4.37-4.59a3.045 3.045 0 0 0 0-4.2L.84 80.47c-.64-.67-.92-1.5-.82-2.42.1-.92.54-1.68 1.31-2.2l5.22-3.58c1.34-.92 1.73-2.72.87-4.11l-3.31-5.4c-.49-.78-.59-1.65-.3-2.53.28-.88.88-1.53 1.73-1.88l5.86-2.42c1.5-.62 2.25-2.31 1.71-3.84l-2.12-5.96c-.31-.88-.23-1.75.23-2.55.46-.8 1.18-1.31 2.09-1.48l6.22-1.14c1.6-.3 2.69-1.79 2.48-3.4l-.84-6.28c-.12-.92.14-1.75.76-2.44s1.42-1.04 2.35-1.01l6.33.17c1.62.05 3-1.19 3.12-2.81l.49-6.31c.07-.92.5-1.69 1.25-2.23a2.93 2.93 0 0 1 2.51-.5l6.15 1.48a3.04 3.04 0 0 0 3.64-2.1l1.79-6.07c.27-.89.84-1.55 1.69-1.92.84-.38 1.72-.37 2.56.03l5.71 2.73c1.47.71 3.22.13 4-1.3l3.01-5.56c.44-.82 1.14-1.34 2.05-1.54.9-.19 1.76.01 2.49.57l5.02 3.86c1.29.99 3.13.8 4.18-.44l4.11-4.82C84.98.37 85.77 0 86.7 0c.93 0 1.72.37 2.32 1.07z"/></clipPath><style>.fil97{fill:#a3322c}.fil96{fill:#a4322c}.fil95{fill:#a5322c}.fil94{fill:#a5322d}.fil93{fill:#a6322d}.fil92{fill:#a6332d}.fil91{fill:#a7332d}.fil90{fill:#a8332d}.fil88{fill:#a9332e}.fil87{fill:#aa332e}.fil86{fill:#ab332e}.fil83{fill:#ac342f}.fil82{fill:#ad342f}.fil81{fill:#ae342f}.fil80{fill:#af342f}.fil79{fill:#b03430}.fil78{fill:#b13430}.fil76{fill:#b23530}.fil75{fill:#b33530}.fil73{fill:#b43531}.fil72{fill:#b53531}.fil71{fill:#b63531}.fil68{fill:#b83632}.fil67{fill:#b93632}.fil66{fill:#ba3632}.fil65{fill:#bb3633}.fil64{fill:#bc3633}.fil63{fill:#bd3633}.fil62{fill:#be3733}.fil60{fill:#bf3734}.fil59{fill:#c03734}.fil58{fill:#c13734}.fil57{fill:#c23735}.fil53{fill:#c53835}.fil52{fill:#c63836}.fil51{fill:#c73836}.fil50{fill:#c83836}.fil47{fill:#ca3937}.fil46{fill:#cb3937}.fil45{fill:#cc3937}.fil44{fill:#cd3938}.fil40{fill:#d03a38}.fil39{fill:#d13a39}.fil38{fill:#d23a39}.fil37{fill:#d33a39}.fil35{fill:#d43a3a}.fil34{fill:#d53b3a}.fil33{fill:#d63b3a}.fil32{fill:#d73b3a}.fil31{fill:#d83b3b}.fil30{fill:#d93b3b}.fil29{fill:#da3b3b}.fil26{fill:#dc3c3c}.fil25{fill:#dd3c3c}.fil24{fill:#de3c3c}.fil22{fill:#df3c3d}.fil21{fill:#e03c3d}.fil19{fill:#e13d3d}.fil18{fill:#e23d3d}.fil17{fill:#e33d3e}.fil16{fill:#e43d3e}.fil15{fill:#e53d3e}.fil14{fill:#e63d3e}.fil11{fill:#e73e3f}.fil10{fill:#e83e3f}.fil9{fill:#e93e3f}.fil7{fill:#ea3e40}.fil6{fill:#eb3e40}.fil5{fill:#ec3e40}.fil4{fill:#ec3f40}.fil3{fill:#ed3f40}.fil2{fill:#ed3f41}.fil1{fill:#ee3f41}.fil0{fill:#ef3f41}</style></defs><g id="Layer_x0020_1"><g style="clip-path:url(#id0)"><path class="fil0" d="m-36.35 83.48.92-.86L83.62 209.33l-.92.87z"/><path id="1" class="fil0" d="m-35.67 82.85.74-.7L84.11 208.87l-.74.69z"/><path id="2" class="fil0" d="m-35.18 82.38.74-.69L84.61 208.4l-.74.7z"/><path id="3" class="fil0" d="m-34.68 81.92.74-.7L85.1 207.94l-.74.69z"/><path id="4" class="fil0" d="m-34.19 81.45.74-.69L85.6 207.47l-.74.7z"/><path id="5" class="fil0" d="m-33.69 80.99.74-.7L86.09 207.01l-.74.69z"/><path id="6" class="fil0" d="m-33.2 80.52.74-.69L86.59 206.54l-.74.7z"/><path id="7" class="fil0" d="m-32.7 80.06.74-.7L87.08 206.08l-.74.69z"/><path id="8" class="fil0" d="m-32.21 79.59.74-.69L87.58 205.61l-.74.7z"/><path id="9" class="fil0" d="m-31.71 79.13.74-.7L88.07 205.15l-.74.69z"/><path id="10" class="fil0" d="m-31.22 78.66.74-.69L88.57 204.68l-.74.7z"/><path id="11" class="fil0" d="m-30.72 78.2.74-.7L89.06 204.22l-.74.69z"/><path id="12" class="fil0" d="m-30.23 77.73.74-.69L89.56 203.75l-.74.7z"/><path id="13" class="fil0" d="m-29.74 77.27.75-.7L90.05 203.29l-.74.69z"/><path id="14" class="fil0" d="m-29.24 76.8.74-.69L90.55 202.82l-.74.7z"/><path id="15" class="fil1" d="m-28.75 76.34.75-.7L91.04 202.36l-.74.69z"/><path id="16" class="fil1" d="m-28.25 75.87.74-.69L91.54 201.89l-.74.7z"/><path id="17" class="fil1" d="m-27.76 75.41.75-.7L92.03 201.43l-.74.69z"/><path id="18" class="fil1" d="m-27.26 74.94.74-.69L92.53 200.96l-.74.7z"/><path id="19" class="fil1" d="m-26.77 74.48.75-.7L93.02 200.5l-.74.69z"/><path id="20" class="fil1" d="m-26.27 74.01.74-.69L93.52 200.03l-.74.7z"/><path id="21" class="fil1" d="m-25.78 73.55.75-.7L94.01 199.57l-.74.7z"/><path id="22" class="fil1" d="m-25.28 73.08.74-.69L94.51 199.1l-.75.7z"/><path id="23" class="fil1" d="m-24.79 72.62.75-.7L95 198.64l-.74.7z"/><path id="24" class="fil1" d="m-24.29 72.15.74-.69L95.5 198.17l-.75.7z"/><path id="25" class="fil2" d="m-23.8 71.69.75-.7L95.99 197.71l-.74.7z"/><path id="26" class="fil2" d="m-23.3 71.22.74-.69L96.49 197.24l-.75.7z"/><path id="27" class="fil2" d="m-22.81 70.76.75-.7L96.98 196.78l-.74.7z"/><path id="28" class="fil3" d="m-22.31 70.29.74-.69L97.48 196.31l-.75.7z"/><path id="29" class="fil3" d="m-21.82 69.83.75-.7L97.97 195.85l-.74.7z"/><path id="30" class="fil3" d="m-21.32 69.36.74-.69L98.47 195.38l-.75.7z"/><path id="31" class="fil3" d="m-20.83 68.9.75-.7L98.96 194.92l-.74.7z"/><path id="32" class="fil4" d="m-20.33 68.43.74-.69L99.46 194.45l-.75.7z"/><path id="33" class="fil4" d="m-19.84 67.97.75-.7L99.95 193.99l-.74.7z"/><path id="34" class="fil4" d="m-19.34 67.5.74-.69 119.05 126.71-.75.7z"/><path id="35" class="fil5" d="m-18.85 67.04.74-.7 119.05 126.72-.74.7z"/><path id="36" class="fil5" d="m-18.35 66.58.74-.7 119.05 126.71-.75.7z"/><path id="37" class="fil5" d="m-17.86 66.11.74-.7 119.05 126.72-.74.7z"/><path id="38" class="fil6" d="m-17.36 65.65.74-.7 119.05 126.71-.75.7z"/><path id="39" class="fil6" d="m-16.87 65.18.74-.7L102.92 191.2l-.74.7z"/><path id="40" class="fil6" d="m-16.37 64.72.74-.7 119.05 126.71-.75.7z"/><path id="41" class="fil6" d="m-15.88 64.25.74-.7 119.05 126.72-.74.7z"/><path id="42" class="fil6" d="m-15.38 63.79.74-.7L104.41 189.8l-.75.7z"/><path id="43" class="fil7" d="m-14.89 63.32.74-.7L104.9 189.34l-.74.7z"/><path id="44" class="fil7" d="m-14.39 62.86.74-.7 119.04 126.71-.74.7z"/><path id="45" class="fil7" d="m-13.9 62.39.74-.7 119.05 126.72-.74.7z"/><path id="46" class="fil7" d="m-13.4 61.93.74-.7 119.04 126.71-.74.7z"/><path id="47" style="fill:#ea3e3f" d="m-12.91 61.46.74-.7 119.05 126.72-.74.7z"/><path id="48" class="fil9" d="m-12.41 61 .74-.7 119.04 126.71-.74.7z"/><path id="49" class="fil9" d="m-11.92 60.53.74-.7 119.05 126.72-.74.7z"/><path id="50" class="fil9" d="m-11.42 60.07.74-.7 119.04 126.71-.74.7z"/><path id="51" class="fil9" d="m-10.93 59.6.74-.7 119.05 126.72-.74.7z"/><path id="52" class="fil10" d="m-10.43 59.14.74-.7 119.04 126.71-.74.7z"/><path id="53" class="fil10" d="m-9.94 58.67.74-.7 119.05 126.72-.74.7z"/><path id="54" class="fil10" d="m-9.44 58.21.74-.7 119.04 126.71-.74.7z"/><path id="55" class="fil10" d="m-8.95 57.74.74-.7 119.05 126.72-.74.7z"/><path id="56" class="fil11" d="m-8.45 57.28.74-.7 119.04 126.71-.74.7z"/><path id="57" class="fil11" d="m-7.96 56.81.74-.7 119.05 126.72-.74.7z"/><path id="58" class="fil11" d="m-7.47 56.35.75-.7 119.04 126.72-.74.69z"/><path id="59" style="fill:#e63e3f" d="m-6.97 55.88.74-.7L112.82 181.9l-.74.7z"/><path id="60" style="fill:#e63d3f" d="m-6.48 55.42.75-.7 119.04 126.72-.74.69z"/><path id="61" class="fil14" d="m-5.98 54.95.74-.7 119.05 126.72-.74.7z"/><path id="62" class="fil14" d="m-5.49 54.49.75-.7L114.3 180.51l-.74.69z"/><path id="63" class="fil15" d="m-4.99 54.02.74-.7L114.8 180.04l-.74.7z"/><path id="64" class="fil15" d="m-4.5 53.56.75-.7 119.04 126.72-.74.69z"/><path id="65" class="fil15" d="m-4 53.09.74-.7 119.05 126.72-.74.7z"/><path id="66" class="fil16" d="m-3.51 52.63.75-.7 119.04 126.72-.74.69z"/><path id="67" class="fil16" d="m-3.01 52.16.74-.7 119.05 126.72-.74.7z"/><path id="68" class="fil16" d="m-2.52 51.7.75-.7 119.04 126.72-.74.69z"/><path id="69" class="fil17" d="m-2.02 51.23.74-.7 119.05 126.72-.75.7z"/><path id="70" class="fil17" d="m-1.53 50.77.75-.7 119.04 126.72-.74.69z"/><path id="71" class="fil17" d="m-1.03 50.3.74-.69 119.05 126.71-.75.7z"/><path id="72" class="fil18" d="m-.54 49.84.75-.7 119.04 126.72-.74.69z"/><path id="73" class="fil18" d="m-.04 49.37.74-.69 119.05 126.71-.75.7z"/><path id="74" class="fil18" d="m.45 48.91.75-.7 119.04 126.72-.74.69z"/><path id="75" class="fil19" d="m.95 48.44.74-.69 119.05 126.71-.75.7z"/><path id="76" class="fil19" d="m1.44 47.98.75-.7L121.23 174l-.74.69z"/><path id="77" style="fill:#e03d3d" d="m1.94 47.51.74-.69 119.05 126.71-.75.7z"/><path id="78" class="fil21" d="m2.43 47.05.75-.7 119.04 126.72-.74.69z"/><path id="79" class="fil21" d="m2.93 46.58.74-.69L122.72 172.6l-.75.7z"/><path id="80" class="fil22" d="m3.42 46.12.74-.7 119.05 126.72-.74.69z"/><path id="81" class="fil22" d="m3.92 45.65.74-.69 119.05 126.71-.75.7z"/><path id="82" style="fill:#df3c3c" d="m4.41 45.19.74-.7L124.2 171.21l-.74.69z"/><path id="83" class="fil24" d="m4.91 44.72.74-.69L124.7 170.74l-.75.7z"/><path id="84" class="fil24" d="m5.4 44.26.74-.7 119.05 126.72-.74.69z"/><path id="85" class="fil25" d="m5.9 43.79.74-.69 119.05 126.71-.75.7z"/><path id="86" class="fil25" d="m6.39 43.33.74-.7 119.05 126.72-.74.69z"/><path id="87" class="fil25" d="m6.89 42.86.74-.69 119.05 126.71-.75.7z"/><path id="88" class="fil26" d="m7.38 42.4.74-.7 119.05 126.72-.74.69z"/><path id="89" class="fil26" d="m7.88 41.93.74-.69 119.04 126.71-.74.7z"/><path id="90" style="fill:#db3c3c" d="m8.37 41.47.74-.7 119.05 126.72-.74.69z"/><path id="91" style="fill:#db3c3b" d="m8.87 41 .74-.69 119.04 126.71-.74.7z"/><path id="92" class="fil29" d="m9.36 40.54.74-.7 119.05 126.72-.74.69z"/><path id="93" class="fil29" d="m9.86 40.07.74-.69 119.04 126.71-.74.7z"/><path id="94" class="fil29" d="m10.35 39.61.74-.7 119.05 126.72-.74.69z"/><path id="95" class="fil30" d="m10.85 39.14.74-.69 119.04 126.71-.74.7z"/><path id="96" class="fil30" d="m11.34 38.68.74-.7L131.13 164.7l-.74.7z"/><path id="97" class="fil31" d="m11.84 38.21.74-.69 119.04 126.71-.74.7z"/><path id="98" class="fil31" d="m12.33 37.75.74-.7 119.05 126.72-.74.7z"/><path id="99" class="fil32" d="m12.83 37.28.74-.69L132.61 163.3l-.74.7z"/><path id="100" class="fil32" d="m13.32 36.82.74-.7 119.05 126.72-.74.7z"/><path id="101" class="fil33" d="m13.82 36.35.74-.69L133.6 162.37l-.74.7z"/><path id="102" class="fil33" d="m14.31 35.89.74-.7L134.1 161.91l-.74.7z"/><path id="103" class="fil34" d="m14.8 35.42.75-.69 119.04 126.71-.74.7z"/><path id="104" class="fil34" d="m15.3 34.96.74-.7 119.05 126.72-.74.7z"/><path id="105" class="fil35" d="m15.79 34.49.75-.69 119.04 126.71-.74.7z"/><path id="106" class="fil35" d="m16.29 34.03.74-.7 119.05 126.72-.74.7z"/><path id="107" style="fill:#d43a39" d="m16.78 33.56.75-.69 119.04 126.71-.74.7z"/><path id="108" class="fil37" d="m17.28 33.1.74-.7 119.05 126.72-.74.7z"/><path id="109" class="fil37" d="m17.77 32.63.75-.69 119.04 126.71-.74.7z"/><path id="110" class="fil38" d="m18.27 32.17.74-.7 119.05 126.72-.74.7z"/><path id="111" class="fil38" d="m18.76 31.71.75-.7 119.04 126.71-.74.7z"/><path id="112" class="fil39" d="m19.26 31.24.74-.7 119.05 126.72-.74.7z"/><path id="113" class="fil39" d="m19.75 30.78.75-.7 119.04 126.71-.74.7z"/><path id="114" class="fil40" d="m20.25 30.31.74-.7 119.05 126.72-.75.7z"/><path id="115" class="fil40" d="m20.74 29.85.75-.7 119.04 126.71-.74.7z"/><path id="116" style="fill:#cf3a38" d="m21.24 29.38.74-.7L141.03 155.4l-.75.7z"/><path id="117" style="fill:#cf3938" d="m21.73 28.92.75-.7 119.04 126.71-.74.7z"/><path id="118" style="fill:#ce3938" d="m22.23 28.45.74-.7 119.05 126.72-.75.7z"/><path id="119" class="fil44" d="m22.72 27.99.75-.7L142.51 154l-.74.7z"/><path id="120" class="fil44" d="m23.22 27.52.74-.7 119.05 126.72-.75.7z"/><path id="121" class="fil45" d="m23.71 27.06.75-.7L143.5 153.07l-.74.7z"/><path id="122" class="fil45" d="m24.21 26.59.74-.7L144 152.61l-.75.7z"/><path id="123" class="fil46" d="m24.7 26.13.75-.7 119.04 126.71-.74.7z"/><path id="124" class="fil46" d="m25.2 25.66.74-.7 119.05 126.72-.75.7z"/><path id="125" class="fil47" d="m25.69 25.2.74-.7 119.05 126.71-.74.7z"/><path id="126" class="fil47" d="m26.19 24.73.74-.7 119.05 126.72-.75.7z"/><path id="127" style="fill:#c93937" d="m26.68 24.27.74-.7 119.05 126.71-.74.7z"/><path id="128" style="fill:#c93836" d="m27.18 23.8.74-.7 119.05 126.72-.75.7z"/><path id="129" class="fil50" d="m27.67 23.34.74-.7 119.05 126.71-.74.7z"/><path id="130" class="fil50" d="m28.17 22.87.74-.7 119.05 126.72-.75.7z"/><path id="131" class="fil51" d="m28.66 22.41.74-.7 119.05 126.71-.74.7z"/><path id="132" class="fil51" d="m29.16 21.94.74-.7 119.05 126.72-.75.7z"/><path id="133" class="fil52" d="m29.65 21.48.74-.7 119.05 126.71-.74.7z"/><path id="134" class="fil52" d="m30.15 21.01.74-.7 119.04 126.72-.74.7z"/><path id="135" class="fil53" d="m30.64 20.55.74-.7 119.05 126.72-.74.69z"/><path id="136" class="fil53" d="m31.14 20.08.74-.7L150.92 146.1l-.74.7z"/><path id="137" style="fill:#c43835" d="m31.63 19.62.74-.7 119.05 126.72-.74.69z"/><path id="138" style="fill:#c33835" d="m32.13 19.15.74-.7 119.04 126.72-.74.7z"/><path id="139" style="fill:#c33735" d="m32.62 18.69.74-.7 119.05 126.72-.74.69z"/><path id="140" class="fil57" d="m33.12 18.22.74-.7L152.9 144.24l-.74.7z"/><path id="141" class="fil57" d="m33.61 17.76.74-.7L153.4 143.78l-.74.69z"/><path id="142" class="fil58" d="m34.11 17.29.74-.7 119.04 126.72-.74.7z"/><path id="143" class="fil58" d="m34.6 16.83.74-.7 119.05 126.72-.74.69z"/><path id="144" class="fil59" d="m35.1 16.36.74-.7 119.04 126.72-.74.7z"/><path id="145" class="fil59" d="m35.59 15.9.74-.7 119.05 126.72-.74.69z"/><path id="146" class="fil60" d="m36.09 15.43.74-.7 119.04 126.72-.74.7z"/><path id="147" class="fil60" d="m36.58 14.97.74-.7 119.05 126.72-.74.69z"/><path id="148" style="fill:#be3734" d="m37.08 14.5.74-.69 119.04 126.71-.74.7z"/><path id="149" class="fil62" d="m37.57 14.04.74-.7 119.05 126.72-.74.69z"/><path id="150" class="fil62" d="m38.06 13.57.75-.69 119.04 126.71-.74.7z"/><path id="151" class="fil63" d="m38.56 13.11.74-.7 119.05 126.72-.74.69z"/><path id="152" class="fil63" d="m39.05 12.64.75-.69 119.04 126.71-.74.7z"/><path id="153" class="fil64" d="m39.55 12.18.74-.7L159.34 138.2l-.74.69z"/><path id="154" class="fil64" d="m40.04 11.71.75-.69 119.04 126.71-.74.7z"/><path id="155" class="fil65" d="m40.54 11.25.74-.7 119.05 126.72-.74.69z"/><path id="156" class="fil65" d="m41.03 10.78.75-.69L160.82 136.8l-.74.7z"/><path id="157" class="fil66" d="m41.53 10.32.74-.7 119.05 126.72-.74.69z"/><path id="158" class="fil66" d="m42.02 9.85.75-.69 119.04 126.71-.74.7z"/><path id="159" class="fil67" d="m42.52 9.39.74-.7 119.05 126.72-.75.69z"/><path id="160" class="fil67" d="m43.01 8.92.75-.69L162.8 134.94l-.74.7z"/><path id="161" class="fil68" d="m43.51 8.46.74-.7L163.3 134.48l-.75.69z"/><path id="162" class="fil68" d="m44 7.99.75-.69 119.04 126.71-.74.7z"/><path id="163" class="fil68" d="m44.5 7.53.74-.7 119.05 126.72-.75.69z"/><path id="164" style="fill:#b73532" d="m44.99 7.06.75-.69 119.04 126.71-.74.7z"/><path id="165" style="fill:#b73531" d="m45.49 6.6.74-.7 119.05 126.72-.75.69z"/><path id="166" class="fil71" d="m45.98 6.13.75-.69 119.04 126.71-.74.7z"/><path id="167" class="fil71" d="m46.48 5.67.74-.7 119.05 126.72-.75.69z"/><path id="168" class="fil72" d="m46.97 5.2.75-.69 119.04 126.71-.74.7z"/><path id="169" class="fil72" d="m47.47 4.74.74-.7 119.05 126.72-.75.69z"/><path id="170" class="fil72" d="m47.96 4.27.74-.69 119.05 126.71-.74.7z"/><path id="171" class="fil73" d="m48.46 3.81.74-.7 119.05 126.72-.75.69z"/><path id="172" class="fil73" d="m48.95 3.34.74-.69 119.05 126.71-.74.7z"/><path id="173" style="fill:#b33531" d="m49.45 2.88.74-.7L169.24 128.9l-.75.69z"/><path id="174" class="fil75" d="m49.94 2.41.74-.69 119.05 126.71-.74.7z"/><path id="175" class="fil75" d="m50.44 1.95.74-.7 119.05 126.72-.75.7z"/><path id="176" class="fil76" d="m50.93 1.48.74-.69L170.72 127.5l-.74.7z"/><path id="177" class="fil76" d="m51.43 1.02.74-.7 119.05 126.72-.75.7z"/><path id="178" style="fill:#b23430" d="m51.92.55.74-.69 119.05 126.71-.74.7z"/><path id="179" class="fil78" d="m52.42.09.74-.7L172.2 126.11l-.74.7z"/><path id="180" class="fil78" d="m52.91-.38.74-.69L172.7 125.64l-.74.7z"/><path id="181" class="fil79" d="m53.41-.84.74-.7 119.04 126.72-.74.7z"/><path id="182" class="fil79" d="m53.9-1.31.74-.69 119.05 126.71-.74.7z"/><path id="183" class="fil79" d="m54.4-1.77.74-.7 119.04 126.72-.74.7z"/><path id="184" class="fil80" d="m54.89-2.24.74-.69 119.05 126.71-.74.7z"/><path id="185" class="fil80" d="m55.39-2.7.74-.7 119.04 126.72-.74.7z"/><path id="186" class="fil80" d="m55.88-3.17.74-.69 119.05 126.71-.74.7z"/><path id="187" class="fil81" d="m56.38-3.63.74-.7 119.04 126.72-.74.7z"/><path id="188" class="fil81" d="m56.87-4.09.74-.7 119.05 126.71-.74.7z"/><path id="189" class="fil81" d="m57.37-4.56.74-.7 119.04 126.72-.74.7z"/><path id="190" class="fil82" d="m57.86-5.02.74-.7 119.05 126.71-.74.7z"/><path id="191" class="fil82" d="m58.36-5.49.74-.7 119.04 126.72-.74.7z"/><path id="192" class="fil82" d="m58.85-5.95.74-.7 119.05 126.71-.74.7z"/><path id="193" class="fil83" d="m59.35-6.42.74-.7L179.13 119.6l-.74.7z"/><path id="194" class="fil83" d="m59.84-6.88.74-.7 119.05 126.71-.74.7z"/><path id="195" style="fill:#ac342e" d="m60.33-7.35.75-.7 119.04 126.72-.74.7z"/><path id="196" style="fill:#ac332e" d="m60.83-7.81.74-.7L180.62 118.2l-.74.7z"/><path id="197" class="fil86" d="m61.32-8.28.75-.7 119.04 126.72-.74.7z"/><path id="198" class="fil86" d="m61.82-8.74.74-.7 119.05 126.71-.74.7z"/><path id="199" class="fil86" d="m62.31-9.21.75-.7L182.1 116.81l-.74.7z"/><path id="200" class="fil87" d="m62.81-9.67.74-.7L182.6 116.34l-.74.7z"/><path id="201" class="fil87" d="m63.3-10.14.75-.7 119.04 126.72-.74.7z"/><path id="202" class="fil87" d="m63.8-10.6.74-.7 119.05 126.71-.74.7z"/><path id="203" class="fil87" d="m64.29-11.07.75-.7 119.04 126.72-.74.7z"/><path id="204" class="fil88" d="m64.79-11.53.74-.7 119.05 126.71-.75.7z"/><path id="205" class="fil88" d="m65.28-12 .75-.7 119.04 126.72-.74.7z"/><path id="206" class="fil88" d="m65.78-12.46.74-.7 119.05 126.71-.75.7z"/><path id="207" class="fil88" d="m66.27-12.93.75-.7 119.04 126.72-.74.7z"/><path id="208" style="fill:#a8332e" d="m66.77-13.39.74-.7 119.05 126.71-.75.7z"/><path id="209" class="fil90" d="m67.26-13.86.75-.7 119.04 126.72-.74.7z"/><path id="210" class="fil90" d="m67.76-14.32.74-.7L187.55 111.7l-.75.69z"/><path id="211" class="fil90" d="m68.25-14.79.75-.7 119.04 126.72-.74.7z"/><path id="212" class="fil90" d="m68.75-15.25.74-.7 119.05 126.72-.75.69z"/><path id="213" class="fil91" d="m69.24-15.72.75-.7L189.03 110.3l-.74.7z"/><path id="214" class="fil91" d="m69.74-16.18.74-.7 119.05 126.72-.75.69z"/><path id="215" class="fil91" d="m70.23-16.65.74-.7 119.05 126.72-.74.7z"/><path id="216" class="fil91" d="m70.73-17.11.74-.7 119.05 126.72-.75.69z"/><path id="217" class="fil91" d="m71.22-17.58.74-.7 119.05 126.72-.74.7z"/><path id="218" class="fil92" d="m71.72-18.04.74-.7 119.05 126.72-.75.69z"/><path id="219" class="fil92" d="m72.21-18.51.74-.7L192 107.51l-.74.7z"/><path id="220" class="fil92" d="m72.71-18.97.74-.7L192.5 107.05l-.75.69z"/><path id="221" class="fil93" d="m73.2-19.44.74-.7 119.05 126.72-.74.7z"/><path id="222" class="fil93" d="m73.7-19.9.74-.7 119.05 126.72-.75.69z"/><path id="223" class="fil93" d="m74.19-20.37.74-.7 119.05 126.72-.74.7z"/><path id="224" class="fil94" d="m74.69-20.83.74-.7 119.04 126.72-.74.69z"/><path id="225" class="fil94" d="m75.18-21.3.74-.69 119.05 126.71-.74.7z"/><path id="226" class="fil94" d="m75.68-21.76.74-.7 119.04 126.72-.74.69z"/><path id="227" class="fil94" d="m76.17-22.23.74-.69 119.05 126.71-.74.7z"/><path id="228" class="fil95" d="m76.67-22.69.74-.7 119.04 126.72-.74.69z"/><path id="229" class="fil95" d="m77.16-23.16.74-.69 119.05 126.71-.74.7z"/><path id="230" class="fil95" d="m77.66-23.62.74-.7L197.44 102.4l-.74.69z"/><path id="231" class="fil96" d="m78.15-24.09.74-.69 119.05 126.71-.74.7z"/><path id="232" class="fil96" d="m78.65-24.55.74-.7 119.04 126.72-.74.69z"/><path id="233" class="fil96" d="m79.14-25.02.74-.69L198.93 101l-.74.7z"/><path id="234" class="fil96" d="m79.64-25.48.74-.7 119.04 126.72-.74.69z"/><path id="235" class="fil96" d="m80.13-25.95.74-.69 119.05 126.71-.74.7z"/><path id="236" class="fil96" d="m80.63-26.41.74-.7L200.41 99.61l-.74.69z"/><path id="237" class="fil96" d="m81.12-26.88.74-.69L200.91 99.14l-.74.7z"/><path id="238" class="fil96" d="m81.61-27.34.75-.7L201.4 98.68l-.74.69z"/><path id="239" class="fil96" d="m82.11-27.81.74-.69L201.9 98.21l-.74.7z"/><path id="240" class="fil96" d="m82.6-28.27.75-.7L202.39 97.75l-.74.69z"/><path id="241" class="fil97" d="m83.1-28.74.74-.69L202.89 97.28l-.74.7z"/><path id="242" class="fil97" d="m83.59-29.2.75-.7L203.38 96.82l-.74.69z"/><path id="243" class="fil97" d="m84.09-29.67.74-.69L203.88 96.35l-.74.7z"/><path id="244" class="fil97" d="m84.58-30.13.75-.7L204.37 95.89l-.74.69z"/><path id="245" class="fil97" d="m85.08-30.6.74-.69L204.87 95.42l-.74.7z"/><path id="246" class="fil97" d="m85.57-31.06.75-.7L205.36 94.96l-.74.69z"/><path id="247" class="fil97" d="m86.07-31.53.74-.69L205.86 94.49l-.74.7z"/><path id="248" class="fil97" d="m86.56-31.99.75-.7L206.35 94.03l-.74.69z"/><path id="249" class="fil97" d="m87.06-32.46.74-.69L206.85 93.56l-.75.7z"/><path id="250" class="fil97" d="m87.55-32.92.75-.7L207.34 93.1l-.74.69z"/><path id="251" class="fil97" d="m88.05-33.39.74-.69L207.84 92.63l-.75.7z"/><path id="252" class="fil97" d="m88.54-33.85.75-.7L208.33 92.17l-.74.7z"/><path id="253" class="fil97" d="m89.04-34.32.74-.69L208.83 91.7l-.75.7z"/><path id="254" class="fil97" d="m89.53-34.78.75-.7L209.32 91.24l-.74.7z"/><path id="255" class="fil97" d="m90.03-35.25.67-.63L209.75 90.84l-.68.63z"/></g><path d="M85.95 160.73c-.8 0-1.06 1.07-.35 1.44.11.06.21.08.33.08.52.01 1.03.01 1.54 0 .17 0 .32-.05.46-.16.57-.44.26-1.36-.47-1.36h-1.51zm-7.71 1.06c.75.09 1.17-.88.56-1.36a.758.758 0 0 0-.38-.16c-.51-.05-1.01-.12-1.51-.18-.31-.04-.6.1-.76.38-.27.46.03 1.06.56 1.13.51.07 1.02.13 1.53.19zm-9.11-1.6c.73.19 1.26-.72.74-1.26a.766.766 0 0 0-.38-.22c-.49-.12-.98-.24-1.46-.37-.82-.21-1.33.87-.64 1.36.08.06.16.09.25.12.49.13.99.25 1.49.37zm-8.84-2.71c.1.04.17.05.27.05.86-.03 1.05-1.16.27-1.47-.47-.18-.94-.36-1.41-.55-.77-.31-1.42.68-.8 1.27.07.06.14.11.23.15.48.19.96.37 1.44.55zm-8.44-3.78c.77.4 1.5-.58.9-1.21a.935.935 0 0 0-.19-.14c-.44-.23-.88-.47-1.33-.71a.742.742 0 0 0-.82.05c-.45.33-.4 1 .08 1.28.45.25.91.49 1.36.73zm-7.91-4.8c.78.52 1.62-.49.98-1.16a.7.7 0 0 0-.1-.08c-.42-.29-.83-.58-1.24-.88-.65-.47-1.52.26-1.1 1.01.05.09.12.16.2.22.42.3.84.6 1.26.89zm-7.26-5.72c.56.51 1.48-.05 1.23-.82a.745.745 0 0 0-.21-.32c-.38-.33-.75-.67-1.12-1.02-.63-.57-1.61.16-1.17.96.04.06.08.11.13.16.38.35.76.7 1.14 1.04zm-6.51-6.57c.57.64 1.61 0 1.28-.8a.666.666 0 0 0-.12-.2c-.33-.38-.66-.77-.99-1.15a.764.764 0 0 0-.94-.19c-.43.22-.54.79-.23 1.17.33.39.67.78 1 1.17zm-5.65-7.32c.45.66 1.52.27 1.38-.58a.808.808 0 0 0-.11-.27c-.29-.42-.56-.84-.84-1.26-.21-.32-.57-.43-.93-.3-.44.19-.61.72-.35 1.12.27.43.56.86.85 1.29zm-4.71-7.96c.39.75 1.52.42 1.44-.43-.02-.09-.04-.17-.08-.26-.23-.45-.46-.9-.68-1.35a.761.761 0 0 0-1.37.66c.22.46.45.92.69 1.38zm-3.7-8.48c.24.64 1.11.68 1.41.08.08-.2.1-.39.03-.59-.17-.48-.34-.95-.51-1.43-.21-.68-1.2-.69-1.44 0-.06.16-.05.33 0 .49.17.49.34.97.51 1.45zm-2.62-8.87c.08.35.39.6.74.6.5 0 .86-.45.75-.93-.11-.49-.22-.98-.32-1.48-.19-.86-1.45-.78-1.51.13 0 .06 0 .12.01.18l.33 1.5zm-1.5-9.12c.07.78 1.17.95 1.47.2.05-.12.06-.23.05-.35-.05-.5-.1-1-.14-1.5-.08-.82-1.17-.97-1.47-.21-.04.11-.06.2-.05.32l.09 1.04.05.5zm-.37-9.24c-.03.79 1.06 1.09 1.44.36.05-.11.08-.2.08-.32l.01-.4c.01-.37.02-.74.04-1.11.02-.78-.96-1.1-1.41-.45-.07.12-.11.23-.12.38l-.02.66-.02.88zm.75-9.22c-.03.17 0 .35.09.49.36.63 1.3.45 1.41-.27.08-.49.15-.99.23-1.49.14-.85-1.02-1.25-1.43-.46-.03.07-.06.14-.07.21-.08.51-.16 1.02-.23 1.52zm1.87-9.05c-.04.15-.03.32.02.47.27.69 1.25.64 1.45-.07.14-.48.27-.97.41-1.45a.76.76 0 0 0-.66-.98.78.78 0 0 0-.8.54l-.42 1.49zm2.99-8.76a.76.76 0 1 0 1.4.59c.2-.47.39-.93.59-1.39.34-.77-.64-1.44-1.24-.84-.07.06-.12.14-.15.22-.21.48-.41.95-.6 1.42zm4.04-8.31a.75.75 0 0 0 .02.79c.31.48 1.02.45 1.3-.04.25-.44.5-.88.76-1.31.41-.67-.38-1.47-1.08-1.02-.1.06-.17.14-.23.24-.26.44-.52.89-.77 1.34zm5.03-7.76c-.5.69.33 1.57 1.05 1.08.07-.05.13-.1.17-.17.31-.4.61-.81.92-1.21.47-.61-.15-1.46-.91-1.16-.12.06-.21.12-.3.23l-.93 1.23zm5.95-7.08c-.57.59.08 1.56.86 1.22.1-.04.17-.09.24-.17.35-.36.7-.73 1.05-1.08.59-.59-.06-1.57-.84-1.24-.09.04-.17.09-.24.16-.36.37-.72.74-1.07 1.11zm6.77-6.3c-.7.58.01 1.67.83 1.26.05-.02.09-.05.13-.08.39-.32.78-.64 1.18-.95.67-.54.09-1.6-.73-1.32a.72.72 0 0 0-.21.12c-.4.32-.8.64-1.2.97zm7.49-5.43c-.26.16-.4.47-.35.77.09.54.7.81 1.16.52.42-.27.85-.54 1.28-.8.74-.44.28-1.59-.57-1.39-.08.02-.15.05-.21.09-.44.26-.88.53-1.31.81zm8.1-4.47c-.81.39-.41 1.61.48 1.44.05-.01.11-.03.16-.05.46-.22.91-.43 1.38-.64.61-.26.59-1.16-.04-1.4a.691.691 0 0 0-.58.01c-.47.21-.94.42-1.4.64zm8.58-3.43c-.64.21-.71 1.09-.11 1.4.19.1.38.12.58.05.48-.15.96-.31 1.45-.46.79-.25.68-1.37-.13-1.48a.688.688 0 0 0-.32.03c-.49.15-.98.3-1.47.46zm8.95-2.34a.764.764 0 0 0 .29 1.5c.49-.1.99-.19 1.48-.28.85-.16.84-1.36-.01-1.5a.963.963 0 0 0-.24 0c-.51.09-1.01.18-1.52.28zm9.16-1.22c-.78.05-.99 1.14-.22 1.47.11.04.21.06.33.05l.56-.04c.3-.01.67-.01.95-.05.84-.05 1-1.21.2-1.49-.1-.03-.18-.04-.27-.03-.33.01-.65.03-.97.05l-.58.04zm9.25-.09c-.76-.05-1.1.96-.47 1.38.11.09.25.13.39.14.32.01.64.03.96.05l.55.04c.84.05 1.15-1.09.35-1.46a.844.844 0 0 0-.24-.06l-.57-.04c-.32-.02-.65-.04-.97-.05zm9.19 1.03c-.76-.14-1.24.85-.59 1.36.1.07.2.12.32.14.5.09 1 .18 1.49.28.87.16 1.28-1.04.48-1.44a.636.636 0 0 0-.18-.06c-.51-.1-1.01-.19-1.52-.28zm9 2.16c-.71-.23-1.29.61-.83 1.2.11.12.22.2.37.25.49.15.97.3 1.45.46.79.26 1.36-.76.73-1.3a.681.681 0 0 0-.26-.15c-.48-.16-.97-.31-1.46-.46zm8.65 3.25c-.68-.3-1.34.43-.96 1.09.08.13.19.23.33.3.47.2.92.42 1.38.63.23.11.5.09.72-.03a.77.77 0 0 0-.07-1.35c-.46-.22-.93-.43-1.4-.64zm8.19 4.3c-.7-.43-1.5.42-1.01 1.1.06.08.13.15.22.2.43.26.86.52 1.28.79.71.45 1.52-.4 1.02-1.09a.606.606 0 0 0-.2-.19c-.43-.28-.87-.55-1.31-.81zm7.6 5.27c-.63-.51-1.53.21-1.15.96.06.09.12.16.2.23.4.31.79.63 1.18.95.66.53 1.55-.23 1.15-.96a.757.757 0 0 0-.18-.22l-1.2-.96zm6.89 6.16c-.57-.57-1.52.01-1.25.8.04.1.09.19.17.27l1.05 1.08c.57.59 1.54.01 1.27-.78a.633.633 0 0 0-.16-.26c-.35-.38-.71-.75-1.08-1.11zm6.1 6.96a.786.786 0 0 0-.42-.28c-.71-.17-1.23.64-.79 1.21.3.4.61.8.91 1.2.19.27.55.38.85.27.5-.17.68-.75.38-1.17-.31-.42-.62-.83-.93-1.23zm5.19 7.65c-.45-.74-1.57-.31-1.4.55.02.08.04.15.09.22.25.44.5.87.75 1.31.43.75 1.58.33 1.41-.54a.605.605 0 0 0-.08-.21c-.25-.44-.51-.89-.77-1.33zm4.21 8.23c-.33-.76-1.49-.52-1.46.35.01.09.03.17.06.26.2.46.4.92.59 1.39.11.26.37.45.65.47.57.04.97-.52.76-1.05a43 43 0 0 0-.6-1.42zm3.17 8.69c-.23-.79-1.41-.7-1.5.15 0 .1.01.19.03.28l.42 1.45c.25.86 1.49.69 1.49-.21 0-.07-.01-.12-.02-.18l-.42-1.49zm2.06 9.02c-.12-.8-1.27-.89-1.49-.06a.75.75 0 0 0-.02.3c.09.5.16.99.23 1.49.14.87 1.37.87 1.51.01a.81.81 0 0 0 0-.22c-.07-.51-.15-1.01-.23-1.52zm.94 9.2c-.03-.8-1.13-1.03-1.46-.28-.05.11-.07.22-.07.33.02.51.04 1.01.05 1.52.03.84 1.18 1.03 1.48.24.03-.09.05-.18.04-.27l-.02-.88-.02-.66zm-.19 9.24a.714.714 0 0 0-.1-.45c-.38-.64-1.35-.42-1.42.33-.04.49-.08 1-.14 1.5-.08.9 1.2 1.18 1.49.3l.03-.14.05-.5.09-1.04zm-1.31 9.16c.16-.75-.78-1.26-1.33-.66-.08.11-.14.21-.17.34-.1.5-.21.99-.32 1.48-.18.84.94 1.31 1.41.55.03-.07.06-.14.08-.21l.33-1.5zm-2.44 8.92c.26-.81-.74-1.36-1.28-.76-.08.08-.12.16-.16.26-.16.48-.33.95-.5 1.43-.29.78.73 1.4 1.3.75.05-.07.1-.14.13-.23.17-.48.35-.97.51-1.45zm-3.52 8.55c.36-.75-.56-1.46-1.19-.9-.08.06-.14.14-.18.23-.22.45-.44.9-.67 1.35-.37.72.49 1.47 1.17.94.08-.08.13-.15.18-.24.24-.46.47-.92.69-1.38zm-4.55 8.05c.42-.62-.25-1.41-.93-1.12-.14.06-.26.16-.35.29-.27.42-.55.84-.83 1.26-.46.69.34 1.52 1.05 1.06.08-.05.16-.12.21-.2.29-.43.58-.86.85-1.29zm-5.5 7.43c.23-.27.24-.67.02-.95a.753.753 0 0 0-1.18-.03c-.33.39-.66.77-.99 1.15-.55.62.17 1.57.94 1.17.08-.05.15-.1.21-.17.33-.38.67-.77 1-1.17zm-6.37 6.71c.26-.24.32-.63.15-.93a.76.76 0 0 0-1.19-.19c-.36.34-.74.68-1.11 1.02-.61.56-.05 1.54.74 1.29.11-.03.19-.08.27-.15.38-.34.77-.69 1.14-1.04zm-7.14 5.87c.66-.48.2-1.52-.6-1.36-.11.02-.2.06-.29.12-.41.3-.82.59-1.24.88-.21.14-.34.41-.32.67.04.6.69.92 1.19.58.42-.29.84-.59 1.26-.89zm-7.81 4.96c.76-.44.34-1.59-.54-1.41a.62.62 0 0 0-.19.07c-.44.24-.89.48-1.33.72-.73.37-.43 1.49.41 1.43.11-.01.2-.03.29-.08.46-.24.91-.48 1.36-.73zm-8.36 3.95c.78-.31.57-1.47-.29-1.47-.1.01-.18.02-.27.06-.47.18-.94.37-1.41.54-.74.28-.62 1.39.21 1.48.11.01.21-.01.32-.05.48-.18.96-.37 1.44-.56zm-8.78 2.9c.28-.08.51-.32.56-.61a.763.763 0 0 0-.94-.87c-.49.13-.98.25-1.47.37-.83.21-.75 1.39.08 1.5.1.01.17 0 .27-.02.5-.12 1-.24 1.5-.37zm-9.08 1.78c.8-.1.91-1.24.12-1.49a.654.654 0 0 0-.31-.02l-1.5.18c-.86.11-.93 1.31-.08 1.51.08.01.16.01.24.01.51-.06 1.02-.12 1.53-.19z" style="fill:#f9d3d3;fill-rule:nonzero"/></g></svg>