<svg xmlns="http://www.w3.org/2000/svg" width="50" height="48" viewBox="0 0 50 48"><path fill="#fff" d="M46.38 35.79h-.87v-4.36a6.11 6.11 0 0 0-5.24-6.04V20.1h4.37c.48 0 .87-.39.87-.87V11.4a.87.87 0 0 0-.87-.87h-4.37V6.16a.87.87 0 0 0-.87-.87H10.58V0H8.83v10.52H4.47a.87.87 0 0 0-.88.87v7.84c0 .48.39.87.88.87h4.36v5.3a6.1 6.1 0 0 0-5.24 6.03v4.36h-.87A2.62 2.62 0 0 0 .1 38.4v3.49a2.62 2.62 0 0 0 2.62 2.61h2.62v2.62c0 .48.39.87.87.87h7.86c.48 0 .88-.4.88-.87V44.5h19.21v2.62c0 .48.39.87.87.87h7.86c.48 0 .88-.4.88-.87V44.5h2.61a2.62 2.62 0 0 0 2.63-2.61V38.4a2.62 2.62 0 0 0-2.63-2.61zm-6.11-23.53h3.5v6.1h-3.5zm-34.93 6.1v-6.1h3.49v6.1zm0 13.07c0-2.4 1.95-4.35 4.36-4.35h.01c.48 0 .87-.4.87-.88V7.03h27.95V26.2c0 .49.39.88.88.88 2.4 0 4.36 1.95 4.36 4.35v4.36H33.29V25.33c0-.48-.4-.87-.88-.87H16.69a.87.87 0 0 0-.87.87V35.8H5.34zm26.2-5.23v9.59H17.57V26.2zM13.2 46.24H7.09V44.5h6.11zm28.82 0h-6.11V44.5h6.11zm5.24-4.35c0 .48-.39.87-.88.87H2.72a.86.86 0 0 1-.87-.87V38.4c0-.48.39-.87.87-.87h43.66c.49 0 .88.38.88.87zM29 30v-2h-9v2zm0 3v-2h-9v2zm-15.8-3.31H7.96a.87.87 0 0 0-.87.87v3.48c0 .49.39.88.87.88h5.24c.48 0 .87-.4.87-.88v-3.48a.87.87 0 0 0-.87-.87zm-.87 3.48h-3.5v-1.74h3.5zm22.7-2.61v3.48c0 .49.39.88.88.88h5.24c.48 0 .87-.4.87-.88v-3.48a.87.87 0 0 0-.87-.87h-5.24a.87.87 0 0 0-.88.87zm1.75.87h3.49v1.74h-3.49zM13.2 21.85h22.71c.48 0 .87-.4.87-.87V10.52a.87.87 0 0 0-.87-.87H13.2a.87.87 0 0 0-.87.87v10.46c0 .48.39.87.87.87zm.87-10.46h20.96v8.71H14.07z"/></svg>