<svg xmlns="http://www.w3.org/2000/svg" width="44" height="34" viewBox="0 0 44 34"><path fill="#d6d4d3" d="M39.68.1H6.76a4.24 4.24 0 0 0-4.23 4.24v7.62H1.7V4.34a.85.85 0 1 0-1.69 0v25.44a.85.85 0 1 0 1.69 0v-8.5h.84v8.48c0 2.34 1.9 4.24 4.23 4.24h32.92c2.33 0 4.22-1.9 4.22-4.23V4.33C43.9 2 42 .1 39.68.1zm-38 19.5v-5.94h5.5a2.96 2.96 0 0 1 0 5.93zm40.54 10.17c0 1.4-1.14 2.54-2.54 2.54H6.76a2.54 2.54 0 0 1-2.54-2.55v-8.47h2.95a4.66 4.66 0 0 0 0-9.32H4.22V4.34c0-1.4 1.14-2.55 2.54-2.55h32.92c1.4 0 2.54 1.14 2.54 2.54zM9.29 16.63c0-1.17-.95-2.12-2.11-2.12a2.12 2.12 0 0 0 0 4.24c1.16 0 2.1-.96 2.1-2.12zm-2.54 0c0-.24.2-.43.43-.43a.42.42 0 0 1 0 .85.42.42 0 0 1-.43-.42zM39 30v-2h-9v2z"/></svg>